<?xml version="1.0" encoding="UTF-8" standalone="no"?>
<svg id="svg2" height="100" width="55" version="1.1" viewBox="0 0 1156 1985">
<g id="g4781">
<path id="path4458" d="m48.719 12.902c-6.834 0.017-13.739 0.544-20.731 1.686-14.787-3.225-13.526 17.949-15.164 26.762-4.5623 15.975-13.424 40.874 6.364 47.162 45.812-10.175 91.172 8.9 134.9 21.048 26.64 12.82 57.62 12.45 84.8 24.05 39.45 19.02 83.03 26.25 125.18 36.04 37.07 14.75 64.43 48.51 76.32 86.06 14.46 13.05 10.92 34.49 19.16 50.94 10.56 49.21 28.73 97.28 44.45 145.53 11.91 49.51 31.19 96.82 43.95 146.23 10.54 45.51 26.23 90.6 37.76 136.1 1.44 14.71 14.32 35.24 0.59 45.58-4.3 2.47-3.8 8.57-5.91 12.63-8.33 0.64-21.24 1.98-29.39 7.23-16.8 4.5-37.26 14.46-39.8 33.81 3.75 19.3 12.86 37.85 10.37 58.13 0.74 7.27-0.31 15.57 2.17 21.82 3.16 32.33 9.83 64.33 14.86 96.09 2.36 11.6 1.68 24.5 5.26 35 7.43 76.3 25.69 152.4 34.63 228 3.05 13 5.68 27.4 7.83 39.6 4.9 22.6 3.84 46.7 7.47 68.9 0.77 10.9-2.68 26.3 2.57 34.9-2.31 7.7 1.04 15.5 0.28 23.4 2.21 26.9-0.8 56.7 5.83 81.9 23.47 114.5 31.03 231.1 49.98 345.9 1.6 10.6 0.79 23.6 3.8 32.5 4.96 39.3 12.35 78.3 18.4 117.1-11.84 15.2 4.43 33.8 0.91 50.6 11.14 86.8 26.5 173.4 41.53 260-0.01 9.3-1.83 29.8 12.12 26.3 0.1 1.6 0.37 3.2 0.67 4.8-3.3 4.7 3.31 7.6 5.42 11.1 19.38 29.3 50.69 45.8 79.26 64.4 39.04 23.2 85.42 25.1 129.43 28.3 47.4 5 101.61 4.4 148.41-8.7l1-0.2c7.7-2.2 18.6-1 24-7.3 0.4-0.3 1.1-1 1.5-1.3 9.6-1.5 23.1-3.6 29.3-7.3 24.3-5.3 48.4-17.8 65.8-36.3 20.8-9.6 36.3-32.3 38.8-54.6 1.4-2.9 2.1-6.2 1.9-9.3 4.9 4.8 13.9 6.6 16.3-1.7 1.3-12.4 5.7-24.5 5.2-37.2 4.8-7.2 0.3-20.8 2.5-29.8 3.7-15.3 4.5-34.2 5.2-50.8 2.2-7.1 3-23 2.4-32 0.1-2.4 0-4.8 0-7.2 4.2-13.2 0-29.3 2.5-43.7 5.1-19.1 1.6-41.2 5.1-61.2-1-16.7 7.7-32.5 5-49.4 4.1-23.3 8.4-54.1 9.9-80.5 17.5-69.4 19.5-142.2 25.2-214.8 2-109.9 28.7-217.6 25.1-327.8 6.8-58.6 15.3-115.9 20.6-174.2 15.6-121 37.9-240.29 50.4-361.91 6.4-18.34 11.5-44.7 1.3-63.09-7.3-24.83-36.8-29.35-59-28.99-13.4-4.26-30.6 5.85-41.5-5.56-11.9-20.6-26.6-40.57-44.5-56.6-6.8-10.34-15.4-19.9-26.3-26.17-4.1-3.37-7.1-8.01-11.3-11.22-11.9-12.49-30.9-16.75-47.3-21.36-2-2.21-5-2-7.6-2.23-12.9-7.06-30.6-5.69-45-10.36-20.8-14.71-34.6-43.37-65-39.7-40.2-11.47-88.8-23.43-130.22-10.01-44.84 9.52-81.84 37.2-119.17 62.03-4.47 5.48-14.34 5.69-14.56 14.16-23.9 0.26-51.56-0.82-73.63 7.63-21.41 3.75-39.48 16.68-59.51 24.22-6.2 17.11-20.96 30.03-27.11 46.93-6.08-8.76-3.41-24.28-11.11-33.66-31.41-112.72-67.64-223.46-97.02-336.63-7.02-39.64-21.53-78.07-31.36-117.49 2.32-28.95-13.9-55.19-25.21-80.97-15.44-29.01-46.06-42.36-74.24-55.72-77.39-26.438-155.94-48.475-234.62-70.125-45.31-12.775-89.586-37.59-137.42-37.473z" transform="scale(.8)" fill="#d5864c"/>
<path id="path4" fill="#43403f" d="m22.39 11.67c44.75-7.31 85.1 16.95 126.52 28.63 62.95 17.32 125.79 34.95 187.7 56.1 22.54 10.69 47.04 21.37 59.39 44.58 9.05 20.62 22.02 41.61 20.17 64.77 7.86 31.54 19.47 62.28 25.09 93.99 23.5 90.54 52.48 179.13 77.61 269.31 6.16 7.5 4.03 19.92 8.89 26.93 4.92-13.52 16.73-23.86 21.69-37.55 16.02-6.03 30.48-16.37 47.61-19.37 19.05-4.62 41.11-3.54 58.9-6.11 0.18-6.77 8.07-6.94 11.65-11.33 29.86-19.86 59.46-42 95.33-49.62 34.68-8.88 70.19 0.83 104.22 8.01 24.29-2.94 35.34 19.99 51.96 31.76 1.17 0.63 3.52 1.88 4.69 2.51-18.66-4.37-24.99-23.11-41.32-29.85-7.98-0.79-18.12-3.44-25.17-3.2-6.54 2.69 2.56 6.82-4.45 6.03-32.65-3.99-68.66-15.63-99.91-0.16-28.87 8.38-52.87 27.66-78.42 42.57-1.76 2.05 1.05 6.4 4.42 3.46 20.19 2.24 40.3-1.23 59.78-6.16 4.62-1.2 9.29-2.05 13.97-3.07 2.36-1.31 4.7-0.63 6.49 1.29 1.31 8.07-8.67 8.39-14.16 9.65-10.13 4.93-21.54 6.54-32.1 10.51-7.42 2.43-15.12 0.49-22.68 1.5-37.45 0.59-79.07-7.16-112.99 12.43-16.28 5.51-28.68 17.5-36.07 32.91 2.47-10.09 5.5-13.6 12.17-20.71-9.69-6.36-17.61 10.79-19.48 18.1-4.91-0.35-0.23 11.34-7.69 9.04-3.98-12.46-7.56-24.4-11.03-37.24-4.11 2.77-3.09-0.55-0.53-2.6-5.77-16.01-8.27-34.96-16.55-49.18 0.07-8.29-5.95-24.4-8.91-35.74-6.38-6.13-1.25-18.86-9.19-24.63 0.79-4.98-1.5-15.48-6.1-19.94 2.77-14.22-9.19-29.3-10.12-44.43-3.23-5.17-2.9-12.56-8.01-16.28 2.11-13.18-6.8-26.8-9.08-39.98-8-24.54-9.64-48.31-18.32-73.13-0.09-6.59-3.32 7.05-3.04 0.55 2.92-6.41-0.44-12.62-2.41-18.79-11.74-24.95-5.15-57.57-22.82-79.99-2.47-11.27-12.69-28.33-27.03-37.32-3.03-5.89-7.48 0.16-9.16 3.99-17.74-10.56-35.33-23.85-56.23-26.43-31.87-9.22-63.46-18.63-95.06-28.78-29.04-10.06-60.24-13.35-88.41-25.81-14.37-5.82-28.9-11.56-43.94-15.36-18.57-2.04-37.15-8.76-55.82-4.8-2.81 10.51-5.27 21.58-6.16 32.55 15.09 4.19 31.33 0 46.13 6.37 31.16 3.82 59.49 18.33 89.82 25.43 32.43 6.8 62.56 20.33 94.39 28.99 19.37 4.29 41.14 4.99 57.58 17.02 20.76 2.99 31.09 23.82 42.91 38.76 1.43 7.7 12.29 4.41 13.29 12.02 1.64 15.11 8.02 29.15 9.46 44.29 11.57 31.78 16.79 64.59 30.58 95.35 18.81 60.44 37.23 121.59 54.69 182.55 19.57 55.88 30.76 115.93 45.17 173.6-3.64-1.92-15.25 8.37-11.51 14.41-5.72-2.47-12.79-2.76-16.68-8.26-8.31-6.93-22.94-11.17-24.17-23.52 5.49-7.51 3.96-17.3-6.22-10.58-9.25 3.15-23.39 8.77-18.91 21.47 5.25 9.8 15.8 14.61 24.98 19.98 33.32 26.31 77.15 25.53 117.03 32.56 7.49 3.16 15.93 2.45 23.66 4.87-5.58 2.82-6.76 6.79-2.74 9.51-30.72-5.02-61.53-10.11-92.56-13.41-21.81-4.79-42.5-15.02-60.32-28.48-2.56-1.66-6.81-5.32-7.15-0.14 14.87 156.44 55.44 310.33 63.17 467.33-2.74 40 9.63 78.6 16.35 117.4 9.18 99 25.05 197.8 38.37 296.6 9.12 43.8 12.39 88.4 15.19 132.9 1.95 22.5 6.88 44.6 10.15 66.9 3.78 18.9 6.01 38.1 9.53 57.1 0.6 15.3 13.17 32.9 2.9 46.9-11.16 2.7-9.71-13.7-9.7-21.2-12.02-69.2-24.31-138.4-33.22-207.9 2.81-13.5-10.2-28.3-0.73-40.5-4.84-31-10.75-62.2-14.72-93.7-0.65-8.6 0.16-17.9-3.04-25.9-15.16-91.9-21.21-185.2-39.98-276.8-3.22-21.7-1.57-43.7-4.67-65.5 0.61-6.3-2.07-12.6-0.22-18.8-1.57-9.1 0.5-19.5-2.06-27.8-2.9-17.8-2.05-37.1-5.97-55.2-0.58-10.7-0.96-22.2-6.27-31.7-7.15-60.41-21.76-121.33-27.7-182.34-2.39-8.9 0.89-20.25-4.21-28-4.02-25.43-9.36-51.03-11.89-76.89-1.1-5.64 1.37-12.38-1.73-17.46 1.99-16.22-5.3-31.06-8.3-46.5 2.03-15.48 18.4-23.45 31.84-27.05 10.56-4.52 28.67 0.67 28.24-15.89 10.98-8.27 0.68-24.69-0.47-36.46-9.23-36.4-21.78-72.47-30.21-108.88-10.21-39.53-25.63-77.38-35.16-116.99-12.58-38.6-27.11-77.05-35.56-116.42-6.59-13.16-3.76-30.31-15.33-40.75-9.51-30.04-31.4-57.05-61.05-68.85-33.72-7.83-68.59-13.62-100.15-28.83-21.74-9.28-46.53-8.99-67.84-19.24-34.98-9.72-71.27-24.98-107.92-16.84-15.83-5.03-8.74-24.95-5.09-37.73 1.31-7.05 0.3-23.99 12.13-21.41m454.8 620.32c-8.4 14-9.2 38.3 9.01 44.84 0.5-13.74-3.88-32.45-9.01-44.84z"/>
<path id="path6" fill="#825747" d="m24.44 22.73c18.67-3.96 37.25 2.76 55.82 4.8 2.58 6.8 18.17 6.77 26.04 11.2 6.09 1.06 11.4 6.21 17.9 4.16 28.17 12.46 59.37 15.75 88.41 25.81 31.6 10.15 63.19 19.56 95.06 28.78 20.9 2.58 38.49 15.87 56.23 26.43 21.89 15.62 31.9 42.43 39.19 67.05-11.25-10.14-7.79 13.17-21.12 6.27-1.87 5.6-2.23 6.61-4.62-0.11-11.57 7.31-1.18 20.43-5.49 31.04-1.44-15.14-7.82-29.18-9.46-44.29-1-7.61-11.86-4.32-13.29-12.02-11.82-14.94-22.15-35.77-42.91-38.76-16.44-12.03-38.21-12.73-57.58-17.02-31.83-8.66-61.96-22.19-94.39-28.99-30.33-7.1-58.66-21.61-89.82-25.43-14.8-6.37-31.04-2.18-46.13-6.37 0.89-10.97 3.35-22.04 6.16-32.55z"/>
<path id="path8" fill="#b1a09c" d="m106.3 38.73c-7.87-4.43-23.46-4.4-26.04-11.2 15.04 3.8 29.57 9.54 43.94 15.36-6.5 2.05-11.81-3.1-17.9-4.16z"/>
<path id="path10" fill="#3e3b3a" d="m363.9 123.91c1.68-3.83 6.13-9.88 9.16-3.99 14.34 8.99 24.56 26.05 27.03 37.32 17.67 22.42 11.08 55.04 22.82 79.99 1.97 6.17 5.33 12.38 2.41 18.79-0.28 6.5 2.95-7.14 3.04-0.55 8.68 24.82 10.32 48.59 18.32 73.13 2.28 13.18 11.19 26.8 9.08 39.98 5.11 3.72 4.78 11.11 8.01 16.28 0.93 15.13 12.89 30.21 10.12 44.43 4.6 4.46 6.89 14.96 6.1 19.94 7.94 5.77 2.81 18.5 9.19 24.63 2.96 11.34 8.98 27.45 8.91 35.74 8.28 14.22 10.78 33.17 16.55 49.18-2.56 2.05-3.58 5.37 0.53 2.6 3.47 12.84 7.05 24.78 11.03 37.24 7.46 2.3 2.78-9.39 7.69-9.04 1.87-7.31 9.79-24.46 19.48-18.1-6.67 7.11-9.7 10.62-12.17 20.71-1.94 2.5-1.88 5.68-1.64 8.68 0.65 6.92-13.19 4.76-8.65 12.33 0.03 3.68-0.35 7.74 1.73 11.02 7.99 18.18 11.44 38.64 20.88 55.99 10.72 1.61 21.3-8.47 32.11-3.06 4.01-0.14 6.25 5.49 2.51 7.62-11.23-1.93-20.53 5.27-31.23 6.91-5.04 2.17-6.02 10.11-5.32 14.63 21.11 4.73 41.89 11.06 63.42 13.94 2.2 2.9-2.38 6.28 2.92 9.2-1.28-6.21 15.08-3.99 7.51 1.01-7.79 5.12 9.92 10.8 11.05 7.68-0.76-8.52 4.5 5.3 6.82 0.06 3.68-3.83 6 7.54 9.43 1.53 3.5-4.18 17.98 9.72 12.05-0.34 8.15-0.1 13.2 3.8 20.17-0.37 1.03 3.06-0.24 6.51 1.51 9.42-3.37-2.11-15.01-6.66-11.54 0.76-29.1 0.05-59.83-6.31-87.19-9.1-4.02-2.72-2.84-6.69 2.74-9.51 2.98-0.86 9.11 2.48 10.84-1.48-9.57-3.98-20.5-2.53-30.29-6.36-28.23-4.77-56.24-12.67-80.24-28.68-3.74-6.04 7.87-16.33 11.51-14.41 2.71 16.59 33.17 19.52 36.16 2.41-20.63-55.52-29.36-111.52-49.14-167.28-13.91-57.94-33.48-114.35-48.92-172.13-8.38-51.6-29.25-100.27-37.31-151.7-7.29-24.62-17.3-51.43-39.19-67.05z"/>
<path id="path12" fill="#8f5e49" d="m381.97 197.23c13.33 6.9 9.87-16.41 21.12-6.27 8.06 51.43 28.93 100.1 37.31 151.7 15.44 57.78 35.01 114.19 48.92 172.13 3.2 12.29-5.9 4.9-11.26 1.34-1.98 1.28-4.78 10.24 0.57 8.55 1.35 3.92-4.64 2.01-2.01 6.45-6.26-1.36-3.82-9.9-3.76-14.33-7.32 1.31-3.6-15.3-10.34-8.33-3.91 0.01 2.69-6.27-0.94-6.83-4.56-2.28 0.26 5.92-4.45 4.42-17.46-60.96-35.88-122.11-54.69-182.55-13.79-30.76-19.01-63.57-30.58-95.35 4.31-10.61-6.08-23.73 5.49-31.04 2.39 6.72 2.75 5.71 4.62 0.11z"/>
<path id="path14" fill="#413d38" d="m762.94 472c33.14-10.74 72.01-1.17 104.22 8.01-34.03-7.18-69.54-16.89-104.22-8.01z"/>
<path id="path16" fill="#e8e6f5" d="m752.96 487.1c31.25-15.47 67.26-3.83 99.91 0.16 7.23 1.14 13.89 4.69 20.59 7.65-2.12 5.53-11.5 6.65-8.58 15.3-3.53 13.1 19.73 10.91 16.41 22.95-11.91 1.28-13.44 16.78-7.39 25.04 7.37 7.01 18.83 9.82 28.06 4.76 3.45 7.76 3.38 17.96 12.8 21.42-1.97 5.88-15.82-0.6-18.95 5.57-5.46 16.13 12.36 29.41 25.48 18.24 3.78-14.61 18.19 1.76 25.72-9.2 11.72-2.84 17.09-15.34 12.07-26.1-0.64-4.7-16.37-0.69-9.63-6.51 6.85-2.34-4.84-8.3 2.42-9.6 9.76-4.21-3.7-13.35 3-18.98 4.83-6.47 12.48 1.19 18.33 2.07 10.3 4.42 21.45 9.33 27.8 19.09 16.3 16.17 32.1 33.16 44.1 52.89 2.6 4.95 7.2 9.71 6.8 15.72-21.3 12.24-46.5 16.47-69.33 23.94-9.19-12.36-27.93-7.26-28.67 8.46-49.78 7.74-99.6-17.59-149.19-3.23-12.64 4.02-25.45 7.58-38.42 10.35 0.27-1.26 0.64-2.49 1.07-3.7 8.2-9.61 4.16-21.7-2.27-30.87-17.93-4.07-27.51 30.73-7.9 34.47 7.86 2.21-0.52 7.83-4.03 10.19-19.49 12.48-40.87 25.51-64.47 26.53 0.08-7.23 12.11-6.34 16.39-10.75 12.26-10.09 5.34-33.52-10.57-34.02-8.56 3.71-6.55 14.34-6.71 21.94-1.67-3.92 0.84-11.11-1.68-13.64-1.18 5.31 0.38 12.56-6.08 14.67-18.99-1.06-38.31 6.3-56.95 2.08-2.94-10.44 6.33-20.47 6.66-31.17 0.73-10.89 14.52-7.49 17.53-16.58 1.94-6.92 10.39-18.52 2.18-24.06-9.45-0.64-12.29 12.53-18.32 16.55-3.38-7.59-6.85-23.58-18.29-18-7.33 2.19-7.64 11.81-13.04 16.18-9.75 4.3-20.75 4.75-31.26 4.51-13.13 2.58-15.5-21.44-29.5-12.6-5.65 7.34-7.42 1.15-8.14-5.62-4.54-7.57 9.3-5.41 8.65-12.33-0.24-3-0.3-6.18 1.64-8.68 7.39-15.41 19.79-27.4 36.07-32.91 12.21-5.54 25.4-7.96 38.54-10.4-3.08 8.48-8.88 19.79 0.69 26.6 3.73 6.42 14.76 1.02 16.7 7.66-0.74 3.96-4.8 13.08 2.35 11.56 9.51-8.16 23.63-16.35 23.32-30.47-6.64-0.01-11.88 4.99-16.81 8.9-6.72-1.27-0.72-15.18-9.01-19.03-1.22-2.38-6.18-3.95-4.47-6.81 18.91 1.41 37.95-1.19 56.79 1.05 0.96 2.06-1.65 4.64-2.26 6.84-9.37 7.04-6.04 26.9 7.01 23.78 5.81-4.21 9.91 7.58 15.11 2.31 4.21-3.87 3.18-9.73 1.89-14.58 6.13-5.65 6.38-13.58 5.82-21.34 10.56-3.97 21.97-5.58 32.1-10.51 5.49-1.26 15.47-1.58 14.16-9.65-8.11-5.54 2.94-14.96 0.59-24.06 2.19-10.46-21.12-7.77-6.83-14.03m54.55 5.15c-8.76 0.69-3.38 15.83-12.23 11.95-10.12 2.31-19.93 12.97-13.66 23.84 5.81 11.96 26.34 2.64 23.54-9.37 13.76 6.11 17.52-26.97 2.35-26.42m29.94 27.2c-13.94-3.66-15.52 21.23-2.77 21.86-1.87 3.96 2.74 15-5.63 12.71-10.93-1-14.8 10.6-17.2 19.1-4.55-10.63-18.4-5.69-19.24 3.6-9.64-4.49-12.16 5.73-9.36 13.03 5.8 0.06 11.85-2.85 12.24 4.83 11.84 0.97 6.36 15.06 8.79 22.86 3.96 0.07 5.81 7.8 1.13 7.96-9.22 0.71-12.3 11.4-13.1 19.01 4.48 9.4 22.26 8.32 23.79-2.48 1.91-5.6-5.82-18.06 4.65-16.91 13.72-8.76 2.01-27.14-6.66-32.66 2.91-2.84 4.19-6.56 2.58-10.88 8.74-2.5 8.95 18.53 19.74 8.79 0.65-10.01 5.27-19.67 2.44-30.15 7.26 3.46 16.57 1.55 22.11-3.35 2.38-3.85-2.16-13.63 4.88-13.06 1.94-12.09-5.04-23.21-13.83-27.78-6.26-2.38-7.93 7.35-14.56 3.52m-46.13 18.86c-11.84 4.88-22.12 19.89-9.39 29.92 13.65 2.6 26.51-27.66 9.39-29.92m-40.85 12.1c-9.31 1.07-15.64 12.04-11.49 20.3-13.01 15.86 20.66 20.85 20.04 3.55-6.16-5.48 2.67-23.75-8.55-23.85m-155.78 22.95c-12.41 3.37-14.8 26.44-3.15 31.36 17.71 1.22 24.31-32.87 3.15-31.36m255.03 4.88c-9.29 7.84-0.86 24.6 10.47 26.4 2.78 0.49 3.95 4.24 1.06 5.52-11.54 6.56-6.93 25.05 3.03 30.86 9.84 1.91 19.06-6.59 17.53-16.52-3.28-2.41-5.03-7.03-4.46-10.92 10.45-4.63 6.6-18.27 5.99-26.87-15-0.73-18.02-7.55-33.62-8.47m146.99 8.26c-11.94 6.04-22.63 20.73-21.75 34.35 11.79 12.82 36.64-2.62 35.44-18.1-3.3-6.93-2.7-17.93-13.69-16.25m-330.48 7.65c-7.8 10.19 18.25 27.11 21.73 10.8-5.78-5.71-13.82-9.34-21.73-10.8m101.31 2.95c-8.28 7.68 2.76 25.91 13.73 17.25 7.15-8.77-4.29-19.65-13.73-17.25m-39.98 16.41c-6.86 1.67-13.64 3.67-20.7 4.33-4.68 9.9 9.31 19.76 17.12 12.11 8.13-0.86 13.24-17.19 3.58-16.44m208.07 3.88c-12 3.63-16.16 29.98 1.3 28.65 18.97 1.91 15.14-30.73-1.3-28.65m-45.99 7c-10.27 1.81-8.25 19.53 1.73 21.32 17.86 9.22 14.95-29.79-1.73-21.32z"/>
<path id="path18" fill="#454241" d="m857.32 481.23c7.05-0.24 17.19 2.41 25.17 3.2 16.33 6.74 22.66 25.48 41.32 29.85 10.33 2.31 20.94 3.43 31.28 5.78 2.14 0.18 4.52 0.01 6.1 1.78 12.13 6.56 26.24 9.24 37.85 17.09 3.36 2.57 5.76 6.28 9.06 8.97 7.2 6.76 13.3 14.76 21.1 20.94 14.2 12.82 26 28.8 35.5 45.28 1.2 8.63 12.9 4.57 18.8 5.33 21.4 1.03 50.7-0.76 61.6 22.31 8.2 14.71 4.1 35.8-1 50.47-3.7-14.28 4.7-24.26 1.9-37.92-4.6 1.79-2.2-1.94-1-4.39-7.1 5.18-3.8-8.62-7.8 2.96-1-7.06-6.2-13.33-12-17.26-14.9-6.92-33-6.36-49.1-5.79-6.7 15.25 13.2 9.05 15.1 20.09 1.9 8.05 12.3-4.57 16 1.91 3.7 4.01 0 9.34-2.5 12.95-87.1 28.23-177.71 41.95-267.6 59.49-13.62 2.31-27.53 1.79-41.26 2.9-24.25 1.74-48.8 1.98-72.86 4.7-1.02-0.18-2.04-0.37-3.04-0.55 5.37-5.34 16.06 1.72 18.92-6.34-10.88 3.48 3.28-5.62-4.51-4.2 0.62-2.17 7.82-0.52 10.88-1.46 15.59-0.44 31.2-1.15 46.66-3.29 48.79-1.24 96.36-14.54 144.11-23.06 48.96-8.42 97.9-19.1 145.5-33.08-2.1-5.23-8.4-10.18-14.6-11.68-7.2-12.06-11.3-26.29-21.8-36.36-12-19.73-27.8-36.72-44.1-52.89-6.35-9.76-17.5-14.67-27.8-19.09-11.91-8.59-27.48-8.47-40.93-12.66 1.16 9.39 12.86 13.87 17.69 20.99 0.76 6.72-7.51 4.1-11.63 3.55-7.7-0.64-10.84-7.45-15.22-12.66-17.05-14.07-28.79-35.53-49.65-44.18-6.7-2.96-13.36-6.51-20.59-7.65 7.01 0.79-2.09-3.34 4.45-6.03z"/>
<path id="path20" fill="#ead2b7" d="m674.54 529.67c25.55-14.91 49.55-34.19 78.42-42.57-14.29 6.26 9.02 3.57 6.83 14.03 2.35 9.1-8.7 18.52-0.59 24.06-1.79-1.92-4.13-2.6-6.49-1.29-5-0.94 2.21-6.17 3.52-8.13 1.63-7.45 2.66-18.57-5.62-22.51-14.82 0.38-21.82 18.68-14.24 30.34 1.87 0.79 5.08 1.14 2.37 3.37-19.48 4.93-39.59 8.4-59.78 6.16-3.37 2.94-6.18-1.41-4.42-3.46z"/>
<path id="path22" fill="#895d4a" d="m807.51 492.25c15.17-0.55 11.41 32.53-2.35 26.42 2.8 12.01-17.73 21.33-23.54 9.37-6.27-10.87 3.54-21.53 13.66-23.84 8.85 3.88 3.47-11.26 12.23-11.95z"/>
<path id="path24" fill="#946249" d="m736.37 523.6c-7.58-11.66-0.58-29.96 14.24-30.34 8.28 3.94 7.25 15.06 5.62 22.51-1.31 1.96-8.52 7.19-3.52 8.13-4.68 1.02-9.35 1.87-13.97 3.07 2.71-2.23-0.5-2.58-2.37-3.37z"/>
<path id="path26" fill="#e4ceb7" d="m873.46 494.91c20.86 8.65 32.6 30.11 49.65 44.18-14.26 5.36-22.8 27.54-13 39.95 16.16 15.09 29.14-14.38 28.22-27.29 4.12 0.55 12.39 3.17 11.63-3.55-4.83-7.12-16.53-11.6-17.69-20.99 13.45 4.19 29.02 4.07 40.93 12.66-5.85-0.88-13.5-8.54-18.33-2.07-6.7 5.63 6.76 14.77-3 18.98-7.26 1.3 4.43 7.26-2.42 9.6-6.74 5.82 8.99 1.81 9.63 6.51-16.47-5.61-24.33 15.23-32.73 24.11-4.3-13.87-19.98-7.87-30.54-7.05 3.13-6.17 16.98 0.31 18.95-5.57-9.42-3.46-9.35-13.66-12.8-21.42-9.23 5.06-20.69 2.25-28.06-4.76-6.05-8.26-4.52-23.76 7.39-25.04 3.32-12.04-19.94-9.85-16.41-22.95-2.92-8.65 6.46-9.77 8.58-15.3m-3.89 5.18c-12.98 15.06 12.95 30.98 25.47 22.82 2.28-12.41-15.51-21.12-25.47-22.82m7.22 36.01c-18.1 14.51 14.72 39.36 26.19 21.79 6.12-14.81-13.7-23.67-26.19-21.79z"/>
<path id="path28" fill="#95624c" d="m869.57 500.09c9.96 1.7 27.75 10.41 25.47 22.82-12.52 8.16-38.45-7.76-25.47-22.82z"/>
<path id="path30" fill="#855743" d="m457.13 506.06c4.71 1.5-0.11-6.7 4.45-4.42 3.63 0.56-2.97 6.84 0.94 6.83 6.74-6.97 3.02 9.64 10.34 8.33-0.06 4.43-2.5 12.97 3.76 14.33-2.63-4.44 3.36-2.53 2.01-6.45-5.35 1.69-2.55-7.27-0.57-8.55 5.36 3.56 14.46 10.95 11.26-1.34 19.78 55.76 28.51 111.76 49.14 167.28-2.99 17.11-33.45 14.18-36.16-2.41-14.41-57.67-25.6-117.72-45.17-173.6z"/>
<path id="path32" fill="#413d38" d="m919.12 511.77c11.52 3.73 25.7 2.64 35.97 8.29-10.34-2.35-20.95-3.47-31.28-5.78-1.17-0.63-3.52-1.88-4.69-2.51z"/>
<path id="path34" fill="#875b49" d="m837.45 519.45c6.63 3.83 8.3-5.9 14.56-3.52 8.79 4.57 15.77 15.69 13.83 27.78-7.04-0.57-2.5 9.21-4.88 13.06-5.54 4.9-14.85 6.81-22.11 3.35 2.83 10.48-1.79 20.14-2.44 30.15-10.79 9.74-11-11.29-19.74-8.79-1.51-2.86-3.18-5.6-4.82-8.36 2.4-8.5 6.27-20.1 17.2-19.1 8.37 2.29 3.76-8.75 5.63-12.71-12.75-0.63-11.17-25.52 2.77-21.86z"/>
<path id="path36" fill="#413d38" d="m961.19 521.84c13.13 3.69 28.32 7.1 37.85 17.09-11.61-7.85-25.72-10.53-37.85-17.09z"/>
<path id="path38" fill="#413d38" d="m597.06 539.06c17.65-6.76 39.78-5.9 58.9-6.11-17.79 2.57-39.85 1.49-58.9 6.11z"/>
<path id="path40" fill="#895c49" d="m876.79 536.1c12.49-1.88 32.31 6.98 26.19 21.79-11.47 17.57-44.29-7.28-26.19-21.79z"/>
<path id="path42" fill="#865a49" d="m791.32 538.31c17.12 2.26 4.26 32.52-9.39 29.92-12.73-10.03-2.45-25.04 9.39-29.92z"/>
<path id="path44" fill="#905e47" d="m923.11 539.09c4.38 5.21 7.52 12.02 15.22 12.66 0.92 12.91-12.06 42.38-28.22 27.29-9.8-12.41-1.26-34.59 13-39.95z"/>
<path id="path46" fill="#c2b0b6" d="m577.27 559.28c33.92-19.59 75.54-11.84 112.99-12.43-2.02 3.07-4.2 6.09-7.15 8.33 0.61-2.2 3.22-4.78 2.26-6.84-18.84-2.24-37.88 0.36-56.79-1.05-1.71 2.86 3.25 4.43 4.47 6.81 8.29 3.85 2.29 17.76 9.01 19.03-3.27 3.04-6.31 6.35-8.86 10.01-1.94-6.64-12.97-1.24-16.7-7.66-9.57-6.81-3.77-18.12-0.69-26.6-13.14 2.44-26.33 4.86-38.54 10.4m44.38-8.97c-11.55 3.53-12.26 22.6-0.13 26.15 8.03 7.02 19.95-4.53 14.77-13.53-2.86-5.51-7.01-14.57-14.64-12.62z"/>
<path id="path48" fill="#8f604c" d="m690.26 546.85c7.56-1.01 15.26 0.93 22.68-1.5 0.56 7.76 0.31 15.69-5.82 21.34 1.29 4.85 2.32 10.71-1.89 14.58-5.2 5.27-9.3-6.52-15.11-2.31-13.05 3.12-16.38-16.74-7.01-23.78 2.95-2.24 5.13-5.26 7.15-8.33z"/>
<path id="path50" fill="#413d38" d="m1008.1 547.9c8.7 5.02 15.6 12.67 21.1 20.94-7.8-6.18-13.9-14.18-21.1-20.94z"/>
<path id="path52" fill="#865a47" d="m621.65 550.31c7.63-1.95 11.78 7.11 14.64 12.62 5.18 9-6.74 20.55-14.77 13.53-12.13-3.55-11.42-22.62 0.13-26.15z"/>
<path id="path54" fill="#93634c" d="m750.47 550.41c11.22 0.1 2.39 18.37 8.55 23.85 0.62 17.3-33.05 12.31-20.04-3.55-4.15-8.26 2.18-19.23 11.49-20.3z"/>
<path id="path56" fill="#855945" d="m642.06 573.13c4.93-3.91 10.17-8.91 16.81-8.9 0.31 14.12-13.81 22.31-23.32 30.47-7.15 1.52-3.09-7.6-2.35-11.56 2.55-3.66 5.59-6.97 8.86-10.01z"/>
<path id="path58" fill="#94644f" d="m792.61 576.72c0.84-9.29 14.69-14.23 19.24-3.6 1.64 2.76 3.31 5.5 4.82 8.36 1.61 4.32 0.33 8.04-2.58 10.88 8.67 5.52 20.38 23.9 6.66 32.66-10.47-1.15-2.74 11.31-4.65 16.91-1.53 10.8-19.31 11.88-23.79 2.48 0.8-7.61 3.88-18.3 13.1-19.01 4.68-0.16 2.83-7.89-1.13-7.96-2.43-7.8 3.05-21.89-8.79-22.86-0.39-7.68-6.44-4.77-12.24-4.83-2.8-7.3-0.28-17.52 9.36-13.03z"/>
<path id="path60" fill="#94644e" d="m926.35 597c8.4-8.88 16.26-29.72 32.73-24.11 5.02 10.76-0.35 23.26-12.07 26.1-7.53 10.96-21.94-5.41-25.72 9.2-13.12 11.17-30.94-2.11-25.48-18.24 10.56-0.82 26.24-6.82 30.54 7.05z"/>
<path id="path62" fill="#8c5e4b" d="m594.69 573.36c21.16-1.51 14.56 32.58-3.15 31.36-11.65-4.92-9.26-27.99 3.15-31.36z"/>
<path id="path64" fill="#8c5d49" d="m849.72 578.24c15.6 0.92 18.62 7.74 33.62 8.47 0.61 8.6 4.46 22.24-5.99 26.87-0.57 3.89 1.18 8.51 4.46 10.92 1.53 9.93-7.69 18.43-17.53 16.52-9.96-5.81-14.57-24.3-3.03-30.86 2.89-1.28 1.72-5.03-1.06-5.52-11.33-1.8-19.76-18.56-10.47-26.4z"/>
<path id="path66" fill="#92624c" d="m996.71 586.5c10.99-1.68 10.39 9.32 13.69 16.25 1.2 15.48-23.65 30.92-35.44 18.1-0.88-13.62 9.81-28.31 21.75-34.35z"/>
<path id="path68" fill="#7d5749" d="m666.23 594.15c7.91 1.46 15.95 5.09 21.73 10.8-3.48 16.31-29.53-0.61-21.73-10.8z"/>
<path id="path70" fill="#835a4b" d="m767.54 597.1c9.44-2.4 20.88 8.48 13.73 17.25-10.97 8.66-22.01-9.57-13.73-17.25z"/>
<path id="path72" fill="#91634d" d="m612.85 610.73c11.44-5.58 14.91 10.41 18.29 18 6.03-4.02 8.87-17.19 18.32-16.55 8.21 5.54-0.24 17.14-2.18 24.06-4 2.13-8.31 7.77-13.04 4.65-7.28-6.16-16.98 3.18-23.9-4.12-10.36-6.08-3.8-19.68 2.51-26.04z"/>
<path id="path74" fill="#edd7c0" d="m599.81 626.91c5.4-4.37 5.71-13.99 13.04-16.18-6.31 6.36-12.87 19.96-2.51 26.04 6.92 7.3 16.62-2.04 23.9 4.12 4.73 3.12 9.04-2.52 13.04-4.65-3.01 9.09-16.8 5.69-17.53 16.58-0.33 10.7-9.6 20.73-6.66 31.17 18.64 4.22 37.96-3.14 56.95-2.08 6.46-2.11 4.9-9.36 6.08-14.67 2.52 2.53 0.01 9.72 1.68 13.64 0.38 8.87 9.15 16.36 17.28 12.08-4.28 4.41-16.31 3.52-16.39 10.75 23.6-1.02 44.98-14.05 64.47-26.53 3.51-2.36 11.89-7.98 4.03-10.19 3.69-0.05 7.12-1.63 10.17-3.6-0.43 1.21-0.8 2.44-1.07 3.7 12.97-2.77 25.78-6.33 38.42-10.35 49.59-14.36 99.41 10.97 149.19 3.23 0.74-15.72 19.48-20.82 28.67-8.46 22.83-7.47 48.03-11.7 69.33-23.94 0.4-6.01-4.2-10.77-6.8-15.72 10.5 10.07 14.6 24.3 21.8 36.36 1.1 3.06 9.9 3.61 5.3 7.06-37.6 20.17-80.96 23.78-121.79 33.9-7.46-1.72-15.73 0.79-23 1.1-6.18-3.11 5.52-12.58-3.78-13.39 4.5-8.55-7.88-4.01-12.63-3.74-1.01-9.3-15.78-6.01-22.85-11.05-4.6 6.52-9.92-6.65-15.66-1.73-5.19 3.81-10.05 4.77-16.05 2.07-6.82 6.05-19.35-1.77-22.91 8.3-2.98 8.91-2.29 0.13-0.72-3.03-21.41-3.16-43.29 0.7-63.29 8.09-11.69-3.78-8.74 9.05-14.28 14.22 2.25 15.81 18.59 15.74 30.92 19.7 2.46 3.44 5.78 1.58 8.85 0.16 0.44 7.28-18.79 4.93-3.12 6.16-15.46 2.14-31.07 2.85-46.66 3.29-4.37-0.18-8.7-0.66-13.05-0.52-7.7 1.24-15.46 1.72-23.22 2.16-19.93-0.72-40.36 4.63-60.23 1.26 3.57-1.89 14.66 3.28 14.07-2.84-7.67-17.9-30.7-3.62-42.09-15.08-19.04-9-44.96 9.3-58.85-12.3 8.61-1.11 14.39 10.94 23.46 5.49 12.23 5.3 18.01-6.36 28.29-8.87 6.48-1.19 0.94-10.06-3.53-9.11-1.45-5.81-3.53-18.14-11.99-13.87 1.02-6.78 8.06-12.44 4.96-19.64-1.54 3.07-6.22 11.19-5.34 2.98 0.5-9.56-9.74 0.32-13.71-4.99-8.09-7.39-21.2-6.78-28.96-14.08-0.75-8.89-17.33-15.29-16.64-2.75-0.51 5.7-3.57-1.74-5.76-2.94-2.08-3.28-1.7-7.34-1.73-11.02 0.72 6.77 2.49 12.96 8.14 5.62 14-8.84 16.37 15.18 29.5 12.6 10.51 0.24 21.51-0.21 31.26-4.51m366 19.51c-4.41 3.04-11.28 6.7-8.83 13.4-1.38 15.69 24.18 16.61 28.95 4.06-1.14-9.34-10.45-19.23-20.12-17.46z"/>
<path id="path76" fill="#8b5d4b" d="m727.56 613.51c9.66-0.75 4.55 15.58-3.58 16.44-7.81 7.65-21.8-2.21-17.12-12.11 7.06-0.66 13.84-2.66 20.7-4.33z"/>
<path id="path78" fill="#413d38" d="m1064.7 614.12c8.7 9.13 22.5 1.04 33.2 4.45 17.8-0.29 41.4 3.33 47.2 23.19-10.9-23.07-40.2-21.28-61.6-22.31-5.9-0.76-17.6 3.3-18.8-5.33z"/>
<path id="path80" fill="#986750" d="m935.63 617.39c16.44-2.08 20.27 30.56 1.3 28.65-17.46 1.33-13.3-25.02-1.3-28.65z"/>
<path id="path82" fill="#efcca5" d="m538.4 627.16c-0.69-12.54 15.89-6.14 16.64 2.75 7.76 7.3 20.87 6.69 28.96 14.08 3.97 5.31 14.21-4.57 13.71 4.99-0.88 8.21 3.8 0.09 5.34-2.98 3.1 7.2-3.94 12.86-4.96 19.64 8.46-4.27 10.54 8.06 11.99 13.87 4.47-0.95 10.01 7.92 3.53 9.11-10.28 2.51-16.06 14.17-28.29 8.87-9.07 5.45-14.85-6.6-23.46-5.49-1.64 0.08-3.27 0.29-4.89 0.48l-0.06-0.8c10.7-1.64 20-8.84 31.23-6.91 3.74-2.13 1.5-7.76-2.51-7.62-10.81-5.41-21.39 4.67-32.11 3.06-9.44-17.35-12.89-37.81-20.88-55.99 2.19 1.2 5.25 8.64 5.76 2.94z"/>
<path id="path84" fill="#413d38" d="m464.31 634.18c1.69-3.25 1.29-8.13 4.73-10.11 0.43 16.56-17.68 11.37-28.24 15.89 6.52-4.2 16.85-5.27 23.51-5.78z"/>
<path id="path86" fill="#996953" d="m889.64 624.39c16.68-8.47 19.59 30.54 1.73 21.32-9.98-1.79-12-19.51-1.73-21.32z"/>
<path id="path88" fill="#cca87a" d="m1076.1 629.83c16.1-0.57 34.2-1.13 49.1 5.79-8.3-3.18-3.2 6.41-1.5 10.41 2.1 4.97 2.3 15.72 10.2 11.99-24.4 17.68-53.8 27.37-83 33.88-21.5 8.09-42.9 16.9-65.59 21.3-30.44 2.12-59.74 12.44-90.17 14.73-69.84 16.85-142.83 17.88-213.97 9.95-5.09-0.05-2.58-2.7 0.98-2.98 12.52-2.04 25.31-1.34 37.79-3.58 1 0.18 2.02 0.37 3.04 0.55-11.36 5.3-0.19 6.49 6.62 6.73 20.19 5.67 37.62-5.99 57.55-6.08 7.36-1.07 16.34 2.48 22.11-4-4.38-1.21-9.15 0.35-13.42-1.35 13.73-1.11 27.64-0.59 41.26-2.9 89.89-17.54 180.5-31.26 267.6-59.49 2.5-3.61 6.2-8.94 2.5-12.95-3.7-6.48-14.1 6.14-16-1.91-1.9-11.04-21.8-4.84-15.1-20.09z"/>
<path id="path90" fill="#d9d8e1" d="m477.19 631.99c5.13 12.39 9.51 31.1 9.01 44.84-18.21-6.54-17.41-30.84-9.01-44.84z"/>
<path id="path92" fill="#93634c" d="m757.19 666.99c-19.61-3.74-10.03-38.54 7.9-34.47 6.43 9.17 10.47 21.26 2.27 30.87-3.05 1.97-6.48 3.55-10.17 3.6z"/>
<path id="path94" fill="#e3d7cc" d="m1123.7 646.03c-1.7-4-6.8-13.59 1.5-10.41 5.8 3.93 11 10.2 12 17.26-0.8 1.89-1.8 3.71-3.3 5.14-7.9 3.73-8.1-7.02-10.2-11.99z"/>
<path id="path96" fill="#936149" d="m965.81 646.42c9.67-1.77 18.98 8.12 20.12 17.46-4.77 12.55-30.33 11.63-28.95-4.06-2.45-6.7 4.42-10.36 8.83-13.4z"/>
<path id="path98" fill="#413d38" d="m1137.2 652.88c4-11.58 0.7 2.22 7.8-2.96-1.2 2.45-3.6 6.18 1 4.39 2.8 13.66-5.6 23.64-1.9 37.92-10 97.3-27.8 192.76-40.3 289.52-4.2 46.65-11.1 92.55-16.6 139.45 3 88.1-18.4 174.2-20 262.1-4.6 58.1-6.2 116.4-20.2 171.9-3.3 20.9-6.2 43-7.9 64.4 2.2 13.5-4.7 26.2-4 39.5-2.8 16 0 33.7-4.1 49-5.1 9.9-0.6 23.7-2 34.9 0 1.9 0.2 3.9 0 5.8-1.5 8.4-2.8 17-1.9 25.6-0.5 13.3-1.2 28.4-4.2 40.6-4.1 6.9-0.3 16.2-2 23.9 0.4 10.1-3.1 19.9-4.1 29.8-1.9 6.6-9.1 5.1-13 1.3 7.8-48 13.2-99.1 13.5-148.7 4.2-51.2 12-101.9 17-153 10.2-60.7 18.8-121.7 19.6-183.1 7.5-84.4 19.7-167.7 22-252.3 1.5-46.5 12.3-92.2 14.9-138.47 12.9-79.79 20.4-160.6 35-240.18 3.4-26.44 8-52.79 9.2-79.44-9.4 4.08-20 9.47-30.3 13.08-18.2 9-39.1 10.23-57.7 18.08-37.4 18.37-79.25 20.31-119.48 27.76-28.76 8.9-59.3 8.84-88.32 16.51-54.59 5.68-109.87 3.92-164.27-1.04-3.47-7.42 8.17-2.87 11.54-0.76-1.75-2.91-0.48-6.36-1.51-9.42-6.97 4.17-12.02 0.27-20.17 0.37 5.93 10.06-8.55-3.84-12.05 0.34-3.43 6.01-5.75-5.36-9.43-1.53-2.32 5.24-7.58-8.58-6.82-0.06-1.13 3.12-18.84-2.56-11.05-7.68 7.57-5-8.79-7.22-7.51-1.01-5.3-2.92-0.72-6.3-2.92-9.2 31.21 4.41 63.22 5.86 94.49 1.3 8.88 7.69 6.86-0.59 15.58 0.58 3.65 8.17 9.83 2.16 7.1-3.33 4.35-0.14 8.68 0.34 13.05 0.52-3.06 0.94-10.26-0.71-10.88 1.46 7.79-1.42-6.37 7.68 4.51 4.2-2.86 8.06-13.55 1-18.92 6.34-12.48 2.24-25.27 1.54-37.79 3.58-13.22-0.62-26.49 0.02-39.66-1.68-4.33-1.79-1.93 6.7 2.42 2.79 12.03 1.48 24.12 2.58 36.26 1.87 71.14 7.93 144.13 6.9 213.97-9.95 30.43-2.29 59.73-12.61 90.17-14.73 22.69-4.4 44.09-13.21 65.59-21.3 29.2-6.51 58.6-16.2 83-33.88 1.5-1.43 2.5-3.25 3.3-5.14z"/>
<path id="path100" fill="#c8a67b" d="m1066.9 648.21c6.2 1.5 12.5 6.45 14.6 11.68-47.6 13.98-96.54 24.66-145.5 33.08 4.39-2.54 9.78-1.8 14.41-3.8 40.83-10.12 84.19-13.73 121.79-33.9 4.6-3.45-4.2-4-5.3-7.06z"/>
<path id="path102" fill="#d9d6da" d="m443.72 651.71c10.18-6.72 11.71 3.07 6.22 10.58 0.28 12.08-13.21-8.08-6.22-10.58z"/>
<path id="path104" fill="#cca473" d="m424.81 673.18c-4.48-12.7 9.66-18.32 18.91-21.47-6.99 2.5 6.5 22.66 6.22 10.58 1.23 12.35 15.86 16.59 24.17 23.52 3.89 5.5 10.96 5.79 16.68 8.26 24 16.01 52.01 23.91 80.24 28.68 7.74 5.02 0.66 2.93-4.21 2.97-39.88-7.03-83.71-6.25-117.03-32.56-7.73-9.55-8.28-24.25-18.74-31.17-3.63 2.63-3.36 7.88-6.24 11.19z"/>
<path id="path106" fill="#95624c" d="m687.8 680.88c0.16-7.6-1.85-18.23 6.71-21.94 15.91 0.5 22.83 23.93 10.57 34.02-8.13 4.28-16.9-3.21-17.28-12.08z"/>
<path id="path108" fill="#efcfaf" d="m872.49 660.36c5.74-4.92 11.06 8.25 15.66 1.73 7.07 5.04 21.84 1.75 22.85 11.05 4.75-0.27 17.13-4.81 12.63 3.74 9.3 0.81-2.4 10.28 3.78 13.39 7.27-0.31 15.54-2.82 23-1.1-4.63 2-10.02 1.26-14.41 3.8-47.75 8.52-95.32 21.82-144.11 23.06-15.67-1.23 3.56 1.12 3.12-6.16-3.07 1.42-6.39 3.28-8.85-0.16-12.33-3.96-28.67-3.89-30.92-19.7 5.54-5.17 2.59-18 14.28-14.22 20-7.39 41.88-11.25 63.29-8.09-1.57 3.16-2.26 11.94 0.72 3.03 3.56-10.07 16.09-2.25 22.91-8.3 6 2.7 10.86 1.74 16.05-2.07m-52.85 11.07c-6.71 1.53-11.12 9.35-10.48 15.88 5.64 8.2 20.01 8.04 21.49-3.65-1.41-4.99-3.76-15.29-11.01-12.23z"/>
<path id="path110" fill="#b96e3a" d="m431.05 661.99c10.46 6.92 11.01 21.62 18.74 31.17-9.18-5.37-19.73-10.18-24.98-19.98 2.88-3.31 2.61-8.56 6.24-11.19z"/>
<path id="path112" fill="#9f684c" d="m819.64 671.43c7.25-3.06 9.6 7.24 11.01 12.23-1.48 11.69-15.85 11.85-21.49 3.65-0.64-6.53 3.77-14.35 10.48-15.88z"/>
<path id="path114" fill="#d6ad7d" d="m1104.7 687.89c10.3-3.61 20.9-9 30.3-13.08-1.2 26.65-5.8 53-9.2 79.44-14.6 79.58-22.1 160.39-35 240.18-7.3-20.39 3.2-42.44 0.2-63.6-0.6-32.43 6.8-64.82 1.4-96.86 2.3-18.54 3.1-36.71-0.7-54.98 1.6-7.52 1.3-15.75-2.8-22.46-0.4-2.57-0.7-5.01-1-7.53 1.7-4.57 0.4-8.87-1.8-12.86 4.3-5.11 12.9-7.32 11.5-15.68-3.5-4.77-3.6-10.52-3-16.17-4.1-2.49-3.3 5.02-6.2 3.14-0.7-2.79-3.6-11.15 3.5-8.48 6.1-0.18 9.3-6.84 12.8-11.06z"/>
<path id="path116" fill="#d1a370" d="m1047 705.97c18.6-7.85 39.5-9.08 57.7-18.08-3.5 4.22-6.7 10.88-12.8 11.06-7.1-2.67-4.2 5.69-3.5 8.48 2.9 1.88 2.1-5.63 6.2-3.14-0.6 5.65-0.5 11.4 3 16.17 1.4 8.36-7.2 10.57-11.5 15.68 2.2 3.99 3.5 8.29 1.8 12.86 1.1-9.1-9.6-12.84-10.5-20.62 5.1-3.27 5.1-9.6 4.8-15.03-9.5-2.63-17 4.83-26.1 5.66-31.9 11.73-66.2 14.26-97.97 26.09-24.88 6.56-48.63 18.11-74.56 20.54-2.66 0.53-5.31 1.09-7.88 1.92-33.66 6.89-68.35-0.4-102.24 4.58-45.56 0.56-91.2 5.37-136.57 7.86-21.8-0.54-42.32-10.8-64-10.47-31.54-5.41-63.84-7.19-93.86-18.48-2.2-3.8-4.87-7.32-6.9-11.21 9.99-1.22 16.14-11.7 23.06-13.15 31.03 3.3 61.84 8.39 92.56 13.41 27.36 2.79 58.09 9.15 87.19 9.1 54.4 4.96 109.68 6.72 164.27 1.04 29.02-7.67 59.56-7.61 88.32-16.51 40.23-7.45 82.08-9.39 119.48-27.76z"/>
<path id="path118" fill="#908b8e" d="m551.59 706.31c-0.7-4.52 0.28-12.46 5.32-14.63l0.06 0.8c-2.99 3.51-4.36 7.99-4.8 12.54 31.72 7.77 63.72 15.6 96.56 17.2 19.87 3.37 40.3-1.98 60.23-1.26l0.54 0.59c-31.27 4.56-63.28 3.11-94.49-1.3-21.53-2.88-42.31-9.21-63.42-13.94z"/>
<path id="path120" fill="#e4e0e8" d="m556.97 692.48c1.62-0.19 3.25-0.4 4.89-0.48 13.89 21.6 39.81 3.3 58.85 12.3 11.39 11.46 34.42-2.82 42.09 15.08 0.59 6.12-10.5 0.95-14.07 2.84-32.84-1.6-64.84-9.43-96.56-17.2 0.44-4.55 1.81-9.03 4.8-12.54z"/>
<path id="path122" fill="#ba6a36" d="m427.71 698.07c0.34-5.18 4.59-1.52 7.15 0.14 17.82 13.46 38.51 23.69 60.32 28.48-6.92 1.45-13.07 11.93-23.06 13.15 2.03 3.89 4.7 7.41 6.9 11.21 8.8 4.31-2.7 11.88 5.7 20.11-9.71 1.9-9.13-10.13-16.23-11.22 0.31-12.9-12.57 11.84-8.82-3.49 1.27-4.41-9.87-8.41-7.04-2.17 3.78 5.05-3.54 0.72-5.98-0.12 2.07-6.19-2.36-10.63-3.59-16.13 7.63-11.11-8.24-20.39-8.88-32.02-2.86-2.63-1.31-11.3-6.47-7.94z"/>
<path id="path124" fill="#cea97b" d="m427.71 698.07c5.16-3.36 3.61 5.31 6.47 7.94 0.64 11.63 16.51 20.91 8.88 32.02 2.72 34.72 13.36 68.76 13.52 103.85 3.37 20.1 2.83 41.71 13.99 59.62 9.18 18.17-3.17 37.72 4.9 55.99 13.12 39.96 11.28 82.51 21.13 122.91-0.28 6.1-0.93 12.3 0.63 18.3-4.77 2.3-1.09-10.8-5.86-6.2-5.6 23.5 1.21 48.5-0.49 72.9-7.73-157-48.3-310.89-63.17-467.33z"/>
<path id="path126" fill="#d5864c" d="m1056.1 719.01c9.1-0.83 16.6-8.29 26.1-5.66 0.3 5.43 0.3 11.76-4.8 15.03 0.9 7.78 11.6 11.52 10.5 20.62 0.3 2.52 0.6 4.96 1 7.53-13.9-1.41-4.5 15.32-7.5 22.61-7.6 7.75-0.8 23.5-6 33.74 3 21.53-9.4 42.58-7.7 62.89-16.3 8.4-3.2-14.23-8.2-15.86-2.9 6.3-7.4-6.24-10.6-0.11-13.3 12.74-7 33.01-10.8 49.26-3.3 3.59-2.6 8.36-3.2 12.77-0.7 2.08-1.1 4.41-2.6 6.18-4.3 4.42-11.9 5.02-15.2 10.03-2.2 1.36-4.3 2.88-5.9 4.99-6.3 7.55-15.05 11.91-23.21 17.02-7.74 1.29-14.89 4.6-22.5 6.31 2.08-2.21 3.32-5.1 5.57-7.15 5.15 5.1 16.82-1.85 14.29-9.31 0.08-5.4 6.34 4.59 7.32-1.26 0.98-5.52 6.74-0.84 10.03-2.68 9.7-6.62 9-19.65 18.6-25.67-7.4 5.59-2.5-9.29-10.4-3.36 4.1-3.57 7.9-13.15 2.5-16.54 0.9 5.44-6.3 7.28-8.5 1.98 6.5 2.36 6.1-7.29 11.5-8.67 8.2-5.52 23.7-9.78 18-22.45 11.4-1.01 5.4-16.11 9.7-22.98-2.2-28.16 6.8-56.54 6.7-84.3-5.4-0.18-8-4.7-6.7-9.96-6.4-8.82-17.4 7.2-23.3-0.09-3.2 1.61-0.8 13.29-6.2 6.53-12.9 3.85-28.04 8.23-41.69 11.55 6.73 4.67 15.15 7.33 21.22 13.29-2.42 3.85-9.6 2.41-10.32 7.42-6.53 4.67-15.97 3.29-21.01 10.23-5.86 2.39-13.24 6.41-9.66 13.79 5.66 9.89-3.75 17.6-5.54 25.73 6.16 2.55 0.62 5.35-2.77 7.32-1.73 6.42 1.81 12.71 2.16 19.11-3.54-0.81-8.47-5.03-10.64-0.32-8.29 5.11 9.9 16.41-1.91 17.51 3.42 6.8 4.71 12.38-6.09 9.33 2.79-8.27-7.97-7.55-6.12-0.82 5.11 3.85 9.27 9.68 9.53 16.17-9.22-0.81-13.55-2.24-11.24-12.87-7.91-4.85-1.95 12.8-11.57 10-1.67-8.38 1.29-17.25-2.57-24.97 2.52-5.3-4.23-6.54-2.76-0.73-7.51-1.25-12.25-7.14-2.6-10.59-0.56-8.84-10.84-5.51-5.32 2.78-11.03-5.56-16.59 16.25-3.1 9.28 0.13 3.13 0.78 11.98-1.14 16.57-7.15-1.37-20.53 12.88-29.66 1.86 8.68-6.3-4.03-4.03-5.13-10.97-8.35-4.23-9.65 5.73-5.84 10.93-4.92-2.18-12.39-3.51-13.39 3.42-2.07 9.49-14.07 7.27-19.46 13.49-6.91 5.11-0.1 19.14-9.96 20.89-6.49 3.26-15.83-4.77-21.01-0.13-6.55-1.73-7.43-10.89-12.79-12.52-0.28 7.34-11.32 5.43-11.41 12.9-4.6 0.41 2.67-13.39-2.3-9.6-2.98 3.82-1.91-5.48 1.73-2.92-5.39-7.74 1.19-17.13-5.35-24.38-5.06-6.41-3.85-15.1-6.51-22.42-5.1-3.61-17.88-7.56-10.43-14.88-13.56 10.81-29.07-3.67-43.42-1.5-5.58 7.35-2.69 19.23-4.53 28.4-8.2-5.08-15.62-11.04-24.36-15.54-3.82-4.88-11.1-0.13-13.87-6.13-2.92-6.3-7.64-14.93-3.91-21 12.48 1.4 25.46 1.14 36.06 6.28 17.44 2.41 36.08-11.95 50.76-2.54 2.22-7.3 11.03-2.88 16.23-6.68 22.53-0.33 46.87-2.23 67.9 0.15-1.54 7.3 14.02 7.5 10.4 0.05 12.08-5.97 28.33-4.96 40.39 1.13 16.61 2.41 32.81-4.71 49.35-0.06 5.48-5.56 6.03 5.28 12.89 3.43-11.63-12.58 16.13-13.24 13.38-27.78-1.05-13.92 6.16-29.67-0.95-41.78 2.73-3.86 12.5 0.37 11.17-7.72-4.14-1.64-9.37 4.05-15.1 2.02-4.03-1.92-2.84 6.91-0.18 2.73 5.57 4.27-0.06 14.48-3.41 5.04-7.16 0.23-9.32-6.68-13.83-11.05-3.07 2.72-8.12 0.75-10.69-1.54 5.59-5.26 17.91-1.1 22.09-11.57 6.95 2.69 10.71 0.6 18.99 0.13 4.21-4.01-1.13-7.96-3.5-2.63-6.69-0.22-24.73-1.03-31.74 6.63-4.87-2.54-10.14-1.51-6.3 4.04-9.6-5.85-19.97 0.31-30.2-2.77 25.93-2.43 49.68-13.98 74.56-20.54 31.77-11.83 66.07-14.36 97.97-26.09z"/>
<path id="path128" fill="#413d38" d="m417.26 713.51c3.1 5.08 0.63 11.82 1.73 17.46-1.98-5-1.14-11.64-1.73-17.46z"/>
<path id="path130" fill="#4d4543" d="m708.96 720.96c7.76-0.44 15.52-0.92 23.22-2.16 2.73 5.49-3.45 11.5-7.1 3.33-8.72-1.17-6.7 7.11-15.58-0.58l-0.54-0.59z"/>
<path id="path132" fill="#908374" d="m571.03 722.75c9.79 3.83 20.72 2.38 30.29 6.36-1.73 3.96-7.86 0.62-10.84 1.48-7.73-2.42-16.17-1.71-23.66-4.87 4.87-0.04 11.95 2.05 4.21-2.97z"/>
<path id="path134" fill="#d4c8bc" d="m722.98 731.87c24.06-2.72 48.61-2.96 72.86-4.7 4.27 1.7 9.04 0.14 13.42 1.35-5.77 6.48-14.75 2.93-22.11 4-19.93 0.09-37.36 11.75-57.55 6.08-6.81-0.24-17.98-1.43-6.62-6.73z"/>
<path id="path136" fill="#978c7e" d="m644.91 736.01c-4.35 3.91-6.75-4.58-2.42-2.79 13.17 1.7 26.44 1.06 39.66 1.68-3.56 0.28-6.07 2.93-0.98 2.98-12.14 0.71-24.23-0.39-36.26-1.87z"/>
<path id="path138" fill="#cd7f46" d="m443.06 738.03c1.23 5.5 5.66 9.94 3.59 16.13 2.44 0.84 9.76 5.17 5.98 0.12-2.83-6.24 8.31-2.24 7.04 2.17-3.75 15.33 9.13-9.41 8.82 3.49 7.1 1.09 6.52 13.12 16.23 11.22-8.4-8.23 3.1-15.8-5.7-20.11 30.02 11.29 62.32 13.07 93.86 18.48-3.85 2.28-0.78 10.71-6.61 6.33-4.78-6.69-9.1-1-14.04 0.91-5.32-7.47-18.48-4.28-25.83-10.87-4.82-2.94-17.67-1.29-12.98 6.51 5.18 4.33 8.75 14.15 16.79 9.79 8.65-2.28 2.97 5.73-1.37 5.74 8.55 5.7 18.61 5.2 28.06 7.96-0.51-8.3 7.25-3.68 8.71 1.62 8.99 3.72 20.37 6.94 26.11 15.68-5.27-0.54-13.64-5.59-16.83-0.16 4.53 3.82 11.78 3.83 17.11 6.72-4.16-0.68-8.24 1.19-8.53 5.54-5.19 0.16-2.93-4.43-2.62-8.06-5.15-1.7-3.69 5.42-6.28 7.49-11.46-3.38-9.53 14.97-19.38 16.44 2.89 0.31 10.29-3.12 7.11 4.99 3.2 12.32 7.45 26.94 7.75 37.87-2.2 5.16 6.09 8.65 2.87 14.77-3.2 8.86 11.19 1.09 10.34 7.84-5.19-2.29-11.52 5.88-5.9 8.84 4.14 4.03-3.46 1-5.73 0.88-10.89-4.07-22.51-6.54-32.81-12.05 3.98-8.95-0.79-19.85-1.58-29.54-2.77-20.61-4.74-41.31-7.38-61.92 2.53-11.17 0.39-25.73-13.01-27.8-11-0.4-19.79-8.56-29.95-10.47 2.46 16.96 3.69 34.47 11.12 50.24 1.38 20.79 3.36 41.77 9.08 61.94 0.51 7.72 9.98 6.49 14.96 9.96-5.16 0.07-7.57 4.35-5.24 9.1-0.35 7.92-8.82 19.02-4.2 28.27 12.08 18.58 5.67 41.88 11.72 62.6 2.67 19.11 13.52 35.11 14.86 54.31 2.39 15.2 3.82 31.5 7.56 46.9 5.31 36 10.52 72.3 14.4 108.8-4.52 15.3 6.31 29.5 2.52 44.4 0.92 9.9 6.51 22.7 2.18 32.7 6.88 20.8 5.56 47.1 12.42 69.6 2.29 4.3-7.94 6.5-0.9 7.7-0.6 5.3 6.01 28.9-3.77 18-0.86 4.4 2.3 7.7 6.41 6.5-0.24 3.6-1.9 6.9-2.4 10.5 5.67 11.1 3 25.4 6.73 37.4 4.59 4.2 3.74 10.8 4.59 16.4-1.81-6.9-5.94-12.8-8.27-19.4 1.52-22.5-10.63-43.7-12.7-66.2-1.05-21.7-6.25-42.9-16.95-60.5-5.58-42.1-9.67-84.3-15.51-126.4-10.63-77.9-27.48-154.9-35.89-232.94-8.42-48.12-11.37-97.49-23.96-145.07 0.57-8.15-9.63-7.24-13.59-3.09 16.71 33.41 12.83 72.64 20.46 108.69 12.24 93.17 28 186.01 43.07 278.81-1.06 1.4-2.24 3.8-4.47 3-3.36-15.9-3.97-36.9-13.22-47.7-1.19-5.1-3.72 0.5-3.06 3.5-2.83-14.6-4.66-29.4-7.62-43.9-1.56-6-0.91-12.2-0.63-18.3-9.85-40.4-8.01-82.95-21.13-122.91-8.07-18.27 4.28-37.82-4.9-55.99-11.16-17.91-10.62-39.52-13.99-59.62-0.16-35.09-10.8-69.13-13.52-103.85m99.39 65.15c2.3 10.68 16.33 15.36 21.92 24.99 5.72-15.11-8.38-26.02-21.92-24.99z"/>
<path id="path140" fill="#ee9758" d="m1020.8 753.92c5.9 7.29 16.9-8.73 23.3 0.09-1.3 5.26 1.3 9.78 6.7 9.96 0.1 27.76-8.9 56.14-6.7 84.3-4.3 6.87 1.7 21.97-9.7 22.98l-0.2-0.79c5.2-4.05 2.2-11.41 2.6-16.96-2.1-29.11 4-58.07 5.7-86.65-5-1.77-4.3 7.66-9.8 8.06-10 6.2-20.7 11.11-31.9 14.97-5.69 0.59-11.39 1.5-16.99 2.83 0.72-5.01 7.9-3.57 10.32-7.42-6.07-5.96-14.49-8.62-21.22-13.29 13.65-3.32 28.79-7.7 41.69-11.55 5.4 6.76 3-4.92 6.2-6.53z"/>
<path id="path142" fill="#d06c39" d="m951.81 757.74c2.37-5.33 7.71-1.38 3.5 2.63-8.28 0.47-12.04 2.56-18.99-0.13-4.18 10.47-16.5 6.31-22.09 11.57 2.57 2.29 7.62 4.26 10.69 1.54 4.51 4.37 6.67 11.28 13.83 11.05 3.35 9.44 8.98-0.77 3.41-5.04-2.66 4.18-3.85-4.65 0.18-2.73 5.73 2.03 10.96-3.66 15.1-2.02 1.33 8.09-8.44 3.86-11.17 7.72 7.11 12.11-0.1 27.86 0.95 41.78 2.75 14.54-25.01 15.2-13.38 27.78-6.86 1.85-7.41-8.99-12.89-3.43-16.54-4.65-32.74 2.47-49.35 0.06-12.06-6.09-28.31-7.1-40.39-1.13 3.62 7.45-11.94 7.25-10.4-0.05-21.03-2.38-45.37-0.48-67.9-0.15 3.13-2.64 6.98-2.85 10.76-2.33-5.02-7.32 6.04-9.42 9.97-4.57 0.21-4.93-10.17-8.07-4.01-11.69 3.36-2.3-1.96-4.55-3.39-6.45 5.17-3.54 0.63-9.63-3.17-12.19 6.79 0.51 1.7-9.79 8.14-5.81 4.21 1.2 17.9-4.68 12.92 3.21-3.99 5.93 3.88 0.05 6.83 3.39-1.49-2.6 0.36-9.09-4.19-7.26 1.76-5.44 13.39-8.94 11.57-0.63 6.44 0.15 0.52-8.69 0.7-11.49-9.04 2.71-6.98-9.27-13.6-2.01 3.15-8.8-4.53-2.3-7.33 0.38 4.09-5.12-7.66-7.85-6.83-1.9-2.51 5.22-4.09-3.46-6.56-4.97 10.3-2.45 19.54-1.12 31.6-1.78 6.77-4.71 16.9 2.79 21.93-5.11 5.56 3.11 2.96 9.66 0.64 13.9 3.64-0.26 6.88-5.43 10.17-3.82 0.11 3.56 8.51 6.97 7.48 2.41-2.47-5.83 7.1-2.47 5.03-9.52-4 1.94-7.02 1.32-8.03-3.42 11.14-6.96 32.72 2.95 42.15-7.97 2.57-0.83 5.22-1.39 7.88-1.92 10.23 3.08 20.6-3.08 30.2 2.77-3.84-5.55 1.43-6.58 6.3-4.04 7.01-7.66 25.05-6.85 31.74-6.63z"/>
<path id="path144" fill="#3f3731" d="m1081.4 779.14c3-7.29-6.4-24.02 7.5-22.61 4.1 6.71 4.4 14.94 2.8 22.46-1.7 42.2-11 83.65-12.2 125.77-12.3 56.5-12.3 115.04-22.7 171.94-4.7 39.3-14.2 78.1-15.4 117.9-10 54-6.2 109.5-14 163.7-3.9 46.2-6.4 92.5-8.4 138.8-4.6 40.2-11.2 80.3-12.2 120.9-3.3 41.6-5.8 83.2-10.5 124.7-1.73 1.6-3.6 3.7-6.2 3.2-0.57-0.1-1.72-0.5-2.3-0.6-2.8-1.6-4.91-4.4-3.52-7.9 13.3-61.9 9.23-125.5 16.82-188 8-48.4 8.3-97.6 11.9-146.3 9.5-110.1 14.1-220.9 33.1-330 6.8-50.2 13.5-100.47 19.1-150.86 6.2-47.05 9.9-95.56 16.2-143.1z"/>
<path id="path146" fill="#c66734" d="m513.42 772.41c-4.69-7.8 8.16-9.45 12.98-6.51 7.35 6.59 20.51 3.4 25.83 10.87 4.94-1.91 9.26-7.6 14.04-0.91 5.83 4.38 2.76-4.05 6.61-6.33 21.68-0.33 42.2 9.93 64 10.47 18.66 4.44 39.63 0.45 55.04 5.86-17.32 0.25-35.46-2.64-52.36-3.27-3.97 1.37 2.25 12.01-2.36 8.18-0.17-6.69-16.02-2.6-8.24 2.36-3.14 4.02-6.38-3.1-9.86 0.94-7 3.05-0.29-10.28-5.98-9.79-5.79 7.98-17.07 12.97-17.85 23.68 14.12 6.36 5.34-8.24 10.97-14.7 4.53-0.2 8.69 13.63 0.45 8.12 0.4 9.95 13.56 2.5 6.1 9.32-1.25 3.76 4.45 5.59 6.18 8.34-3.39 3.14-11.08-5.66-8.52 3.24 1.27 3.11 4.99 12.06 8.02 6.17 5.8-6.37 8.06 15.79 9.84 4.91 3.23-0.11 10.17 2.86 5.63-1.64 4.63-3.37 8.1-0.04 10.48 4.05 0.72-2.99-0.57-8.86-3.57-11.29-2.46 4.11-14.81 7.17-9.94-0.4-3.05-2.17-8.28 2.8-5.08-3.07 4.34-6.03-6.47 0.9-4.5-4.65 7.42-0.36 23.6-3.92 23.65 9.09 2.69 11.47 0.01-12.97 5.75-6.04 5.06 11.28-4.8 9.95-2.21 19.85 1.64 4.15-3.23 5.6-4.28 8.7 4.48 0.98 5.68-7.33 9.73-4.03 3.65 6.02 12.44-7.8 3.75-7.13-2.59-7.47 10.6 6.41 6.89-1.59-5.22-9.15 8.98-1.01 4.32 3.55 3.02-6.31 6.46-0.98 10.83-0.02-1.56-7.38-18.77-7.01-15.37-16.31 3.89 0.95 7.08-0.7 9.66-3.56 3.33 1.81 2.87 7.09 7.05 8.06-4.76-6.76 6.99-10.86 11.81-10.31 2.5 8.53 7.96-6.09 12 0.23 3 4.9 11.89-4.61 10.36 3.05 8.21-7.49 11.51 5.37 10.97 11.67 3.26 6.74 1.22-4.5 5.86-3.43 1.26 6.55-8.66 13.94 2.92 10.85-5.64 3.25 0.43 7.71 3.77 8.77 11.62 0.19 3.13-13.16 12.03-15.43 1.84 7.24 11.19-0.37 10.55-4.87-2.79-5.15-10.53-4.41-12-10.7-0.23-5.93 10.01-2.81 9.58-9.33-8.68 3.69-4.39-8.24-9.94-11.46-3.94-3.14 8.01-3.49 1.74-4.63-4.5-1.9-2.83 4.65-5.7 5.88-2.1-2.37-1.83-8.79-6.39-6.84-2.12 2.65 6.22 3.86 1.81 6.2-5.86 5.32-3.91-8.34-9.38-5.5-12.37-0.63-25.24-5.36-38.36-5.06 15.75-7.04 36.07 4.91 53.32-0.62 2.02 1.69 6.64 4.51 5.16-0.4 7.66 8.92 1.79-4.83 13.51-2.13 2.47 1.51 4.05 10.19 6.56 4.97-0.83-5.95 10.92-3.22 6.83 1.9 2.8-2.68 10.48-9.18 7.33-0.38 6.62-7.26 4.56 4.72 13.6 2.01-0.18 2.8 5.74 11.64-0.7 11.49 1.82-8.31-9.81-4.81-11.57 0.63 4.55-1.83 2.7 4.66 4.19 7.26-2.95-3.34-10.82 2.54-6.83-3.39 4.98-7.89-8.71-2.01-12.92-3.21-6.44-3.98-1.35 6.32-8.14 5.81 3.8 2.56 8.34 8.65 3.17 12.19 1.43 1.9 6.75 4.15 3.39 6.45-6.16 3.62 4.22 6.76 4.01 11.69-3.93-4.85-14.99-2.75-9.97 4.57-3.78-0.52-7.63-0.31-10.76 2.33-5.2 3.8-14.01-0.62-16.23 6.68-14.68-9.41-33.32 4.95-50.76 2.54-10.6-5.14-23.58-4.88-36.06-6.28-13.74-4.28-25.09-12.71-37.79-19.08-4.04-3.46-4.54-10.34-10.1-12.06-3.59-1.64-7.35-3.09-10.25-5.79-5.74-8.74-17.12-11.96-26.11-15.68-1.46-5.3-9.22-9.92-8.71-1.62-9.45-2.76-19.51-2.26-28.06-7.96 4.34-0.01 10.02-8.02 1.37-5.74-8.04 4.36-11.61-5.46-16.79-9.79z"/>
<path id="path148" fill="#f0d5bc" d="m1032.7 774.91c5.5-0.4 4.8-9.83 9.8-8.06-1.7 28.58-7.8 57.54-5.7 86.65-0.4 5.55 2.6 12.91-2.6 16.96-0.3-0.27-1-0.82-1.3-1.09-3-2.84-7.8-2.4-11.5-1.05-4 1.17-8.6 9.86-10.8 2.02-3-26.51-0.2-53.58-8.4-78.86 11.1-4.21 21.7-9.64 32.6-14.6-0.6-0.82-1.2-1.47-2.1-1.97z"/>
<path id="path150" fill="#cc7b44" d="m773.45 772.14c33.89-4.98 68.58 2.31 102.24-4.58-9.43 10.92-31.01 1.01-42.15 7.97 1.01 4.74 4.03 5.36 8.03 3.42 2.07 7.05-7.5 3.69-5.03 9.52 1.03 4.56-7.37 1.15-7.48-2.41-3.29-1.61-6.53 3.56-10.17 3.82 2.32-4.24 4.92-10.79-0.64-13.9-5.03 7.9-15.16 0.4-21.93 5.11-12.06 0.66-21.3-0.67-31.6 1.78-11.72-2.7-5.85 11.05-13.51 2.13 1.48 4.91-3.14 2.09-5.16 0.4-17.25 5.53-37.57-6.42-53.32 0.62l-0.81-0.16c-15.41-5.41-36.38-1.42-55.04-5.86 45.37-2.49 91.01-7.3 136.57-7.86z"/>
<path id="path152" fill="#ddb586" d="m486.9 774.58c10.16 1.91 18.95 10.07 29.95 10.47 13.4 2.07 15.54 16.63 13.01 27.8 4-11.99-7-12.96-8.14-22.48-0.79-4.27-5.87-3.29-9.06-3.48 1.13 15.52 9.79 31.07 4.15 46.76-7.52 9.42-18.93 21.56-12.12 34.61 4.28 7.69 1.44 21.64 13.01 23.01 6.6 3.95 12.88 9.08 20.92 10.66 0.04-9.08-1.48-18.09-1.38-27.16 0.79 9.69 5.56 20.59 1.58 29.54-5.8-2.12-11.39-4.6-16.76-7.59-4.98-3.47-14.45-2.24-14.96-9.96-5.72-20.17-7.7-41.15-9.08-61.94-7.43-15.77-8.66-33.28-11.12-50.24z"/>
<path id="path154" fill="#dcbe92" d="m1000.8 789.88c11.2-3.86 21.9-8.77 31.9-14.97 0.9 0.5 1.5 1.15 2.1 1.97-10.9 4.96-21.5 10.39-32.6 14.6 8.2 25.28 5.4 52.35 8.4 78.86 2.2 7.84 6.8-0.85 10.8-2.02-4.8 8.2-14.3 12.94-22.22 17.81-6.02 2.12-11.98 4.37-17.83 6.9-7.28-1.52-14.91 8.81-21.08 3.33 0.88-26 2.28-52.39-4.1-77.63-4.79-9.98 9.58-10.04 14.34-15.4 9.93-3.55 22.72-6.02 30.29-13.45z"/>
<path id="path156" fill="#be7640" d="m1075.4 812.88c5.2-10.24-1.6-25.99 6-33.74-6.3 47.54-10 96.05-16.2 143.1 1.4-6.68 0.3-13.03-3.6-18.54 2.2-6.78 0.7 5.2 5.3 3.25 2.6-5.49 0.9-19.73-8.3-14.82-9.9 2.58 5.7 18.44-2.9 17.36-1-13.31-7.4-1.91-3.6 4.19-3.2-1.45-5 1.62-6.3 4.06 4.7-2.38 11.9-2.83 12.2 4.04-6.8-6.25-15.4 17.13-15.8 5.43 2.5-11.24-8 1.78-7.3-5.38 0.6-4.41-0.1-9.18 3.2-12.77 3.8-16.25-2.5-36.52 10.8-49.26 3.2-6.13 7.7 6.41 10.6 0.11 5 1.63-8.1 24.26 8.2 15.86-1.7-20.31 10.7-41.36 7.7-62.89z"/>
<path id="path158" fill="#c68954" d="m1079.5 904.76c1.2-42.12 10.5-83.57 12.2-125.77 3.8 18.27 3 36.44 0.7 54.98 5.4 32.04-2 64.43-1.4 96.86 3 21.16-7.5 43.21-0.2 63.6-2.6 46.27-13.4 91.97-14.9 138.47-2.3 84.6-14.5 167.9-22 252.3-4.1-11.6 7.5-28.6-2.8-36.3-5.9 9.1-1.4 23.8-11.8 30.5-3.4 6.7 3.1 14-1.4 20.6-2.8 2.8 3.1 12.2-3.2 10.4-6.2 1.9 1 16.8-6.7 14 4 5.7 1.6 12.5-2.4 18.3-1.1 10.9 7 28.1-4.7 34.7 6.9 5.5-0.1 13-1.9 19.7 2-46.3 4.5-92.6 8.4-138.8 7.8-54.2 4-109.7 14-163.7 1.2-39.8 10.7-78.6 15.4-117.9 10.4-56.9 10.4-115.44 22.7-171.94z"/>
<path id="path160" fill="#bc5f31" d="m639.56 782.59c16.9 0.63 35.04 3.52 52.36 3.27l0.81 0.16c13.12-0.3 25.99 4.43 38.36 5.06 5.47-2.84 3.52 10.82 9.38 5.5 4.41-2.34-3.93-3.55-1.81-6.2 4.56-1.95 4.29 4.47 6.39 6.84 2.87-1.23 1.2-7.78 5.7-5.88 6.27 1.14-5.68 1.49-1.74 4.63 5.55 3.22 1.26 15.15 9.94 11.46 0.43 6.52-9.81 3.4-9.58 9.33 1.47 6.29 9.21 5.55 12 10.7 0.64 4.5-8.71 12.11-10.55 4.87-8.9 2.27-0.41 15.62-12.03 15.43-3.34-1.06-9.41-5.52-3.77-8.77-11.58 3.09-1.66-4.3-2.92-10.85-4.64-1.07-2.6 10.17-5.86 3.43 0.54-6.3-2.76-19.16-10.97-11.67 1.53-7.66-7.36 1.85-10.36-3.05-4.04-6.32-9.5 8.3-12-0.23-4.82-0.55-16.57 3.55-11.81 10.31-4.18-0.97-3.72-6.25-7.05-8.06-2.58 2.86-5.77 4.51-9.66 3.56-3.4 9.3 13.81 8.93 15.37 16.31-4.37-0.96-7.81-6.29-10.83 0.02 4.66-4.56-9.54-12.7-4.32-3.55 3.71 8-9.48-5.88-6.89 1.59 8.69-0.67-0.1 13.15-3.75 7.13-4.05-3.3-5.25 5.01-9.73 4.03 1.05-3.1 5.92-4.55 4.28-8.7-2.59-9.9 7.27-8.57 2.21-19.85-5.74-6.93-3.06 17.51-5.75 6.04-0.05-13.01-16.23-9.45-23.65-9.09-1.97 5.55 8.84-1.38 4.5 4.65-3.2 5.87 2.03 0.9 5.08 3.07-4.87 7.57 7.48 4.51 9.94 0.4 3 2.43 4.29 8.3 3.57 11.29-2.38-4.09-5.85-7.42-10.48-4.05 4.54 4.5-2.4 1.53-5.63 1.64-1.78 10.88-4.04-11.28-9.84-4.91-3.03 5.89-6.75-3.06-8.02-6.17-2.56-8.9 5.13-0.1 8.52-3.24-1.73-2.75-7.43-4.58-6.18-8.34 7.46-6.82-5.7 0.63-6.1-9.32 8.24 5.51 4.08-8.32-0.45-8.12-5.63 6.46 3.15 21.06-10.97 14.7 0.78-10.71 12.06-15.7 17.85-23.68 5.69-0.49-1.02 12.84 5.98 9.79 3.48-4.04 6.72 3.08 9.86-0.94-7.78-4.96 8.07-9.05 8.24-2.36 4.61 3.83-1.61-6.81 2.36-8.18z"/>
<path id="path162" fill="#edccab" d="m512.66 786.89c3.19 0.19 8.27-0.79 9.06 3.48 1.14 9.52 12.14 10.49 8.14 22.48 2.64 20.61 4.61 41.31 7.38 61.92-0.1 9.07 1.42 18.08 1.38 27.16-8.04-1.58-14.32-6.71-20.92-10.66-11.57-1.37-8.73-15.32-13.01-23.01-6.81-13.05 4.6-25.19 12.12-34.61 5.64-15.69-3.02-31.24-4.15-46.76z"/>
<path id="path164" fill="#dba571" d="m983.81 792.71c5.6-1.33 11.3-2.24 16.99-2.83-7.57 7.43-20.36 9.9-30.29 13.45-4.76 5.36-19.13 5.42-14.34 15.4 6.38 25.24 4.98 51.63 4.1 77.63 6.17 5.48 13.8-4.85 21.08-3.33-6.96 4.6-15.56 5.41-22.49 10.03-6.79-16.83-0.1-35.26-3.68-52.43 0.16-11.34 4.22-23.42-2.04-33.9-3.58-7.38 3.8-11.4 9.66-13.79 5.04-6.94 14.48-5.56 21.01-10.23z"/>
<path id="path166" fill="#3e342e" d="m462.07 796.3c3.96-4.15 14.16-5.06 13.59 3.09 12.59 47.58 15.54 96.95 23.96 145.07 8.41 78.04 25.26 155.04 35.89 232.94 5.84 42.1 9.93 84.3 15.51 126.4 12.92 83.4 19.24 168.1 36.51 250.8 2.58 26.1 8.25 52 7.68 78 11.28 52.1 17.68 104.9 25.59 157.6-2.35 8.5 5.08 19-2.09 25.9-8 1.8-10.46-6.1-7.72-12-0.54-13.7-2.64-27.3-4.14-40.9-4.92-51.1-19.75-100.4-23.09-151.4-5.81-67.4-22.36-133.2-29.01-200.5-10.66-75.4-19.88-151.7-29.15-227.5-15.07-92.8-30.83-185.64-43.07-278.81-7.63-36.05-3.75-75.28-20.46-108.69z"/>
<path id="path168" fill="#d8a979" d="m542.45 803.18c13.54-1.03 27.64 9.88 21.92 24.99-5.59-9.63-19.62-14.31-21.92-24.99z"/>
<path id="path170" fill="#413d38" d="m430.88 807.86c5.1 7.75 1.82 19.1 4.21 28-2.87-8.41-2.32-18.7-4.21-28z"/>
<path id="path172" fill="#ebb084" d="m574.89 813.04c3.19-5.43 11.56-0.38 16.83 0.16 2.9 2.7 6.66 4.15 10.25 5.79 2.12 4.8 9.7 11.04 4.97 15.9-6.06-3.02-7.58-12.91-14.94-15.13-5.33-2.89-12.58-2.9-17.11-6.72z"/>
<path id="path174" fill="#c97339" d="m574.57 824.73c2.59-2.07 1.13-9.19 6.28-7.49-0.31 3.63-2.57 8.22 2.62 8.06 4.31 10.26 13.75 23.59 18.84 36.7 5.21 19.44 6.5 38.62 12.01 58.37-1.69 7.65 7.16 9.5 11.56 13.81-18.4-4.87-36.52-11.35-54.25-17.82 2.27 0.12 9.87 3.15 5.73-0.88-5.62-2.96 0.71-11.13 5.9-8.84 0.85-6.75-13.54 1.02-10.34-7.84 3.22-6.12-5.07-9.61-2.87-14.77-0.3-10.93-4.55-25.55-7.75-37.87 3.18-8.11-4.22-4.68-7.11-4.99 9.85-1.47 7.92-19.82 19.38-16.44z"/>
<path id="path176" fill="#d0935c" d="m953.14 816.73c6.26 10.48 2.2 22.56 2.04 33.9 3.58 17.17-3.11 35.6 3.68 52.43 6.93-4.62 15.53-5.43 22.49-10.03 5.85-2.53 11.81-4.78 17.83-6.9-10.26 9.34-24.51 11.4-36.52 17.6-22.74 7.25-44.52 17.36-67.67 23.36-10.76 0.9-23.65 2.06-31.73 1.45-1.74-9.43 6.27 0.27 7.61-5.5-6.81-6.95-10.33-16.83-20.04-20.99-3.81-5.2-2.51-15.16 5.84-10.93 1.1 6.94 13.81 4.67 5.13 10.97 9.13 11.02 22.51-3.23 29.66-1.86 1.92-4.59 1.27-13.44 1.14-16.57-13.49 6.97-7.93-14.84 3.1-9.28-5.52-8.29 4.76-11.62 5.32-2.78-9.65 3.45-4.91 9.34 2.6 10.59-1.47-5.81 5.28-4.57 2.76 0.73 3.86 7.72 0.9 16.59 2.57 24.97 9.62 2.8 3.66-14.85 11.57-10-2.31 10.63 2.02 12.06 11.24 12.87-0.26-6.49-4.42-12.32-9.53-16.17-1.85-6.73 8.91-7.45 6.12 0.82 10.8 3.05 9.51-2.53 6.09-9.33 11.81-1.1-6.38-12.4 1.91-17.51 2.17-4.71 7.1-0.49 10.64 0.32-0.35-6.4-3.89-12.69-2.16-19.11 3.39-1.97 8.93-4.77 2.77-7.32 1.79-8.13 11.2-15.84 5.54-25.73z"/>
<path id="path178" fill="#db7e40" d="m601.97 818.99c5.56 1.72 6.06 8.6 10.1 12.06 12.7 6.37 24.05 14.8 37.79 19.08-3.73 6.07 0.99 14.7 3.91 21-8.96-0.9-19.9-4.97-27.8-0.99-2.51 21.63 10.11 40.98 8.44 62.4-1.07 3.84-5.76 1.81-8.53 1.64-4.4-4.31-13.25-6.16-11.56-13.81-5.51-19.75-6.8-38.93-12.01-58.37-5.09-13.11-14.53-26.44-18.84-36.7 0.29-4.35 4.37-6.22 8.53-5.54 7.36 2.22 8.88 12.11 14.94 15.13 4.73-4.86-2.85-11.1-4.97-15.9z"/>
<path id="path180" fill="#c76f38" d="m696.53 864.4c14.35-2.17 29.86 12.31 43.42 1.5-7.45 7.32 5.33 11.27 10.43 14.88 2.66 7.32 1.45 16.01 6.51 22.42 6.54 7.25-0.04 16.64 5.35 24.38-3.64-2.56-4.71 6.74-1.73 2.92 4.97-3.79-2.3 10.01 2.3 9.6-0.14 2.08-0.27 4.17-0.35 6.27-45.93 2.47-92.91 3.55-136.58-12.19 2.77 0.17 7.46 2.2 8.53-1.64 1.67-21.42-10.95-40.77-8.44-62.4 7.9-3.98 18.84 0.09 27.8 0.99 2.77 6 10.05 1.25 13.87 6.13 8.74 4.5 16.16 10.46 24.36 15.54 1.84-9.17-1.05-21.05 4.53-28.4z"/>
<path id="path182" fill="#433930" d="m1021.4 868.32c3.7-1.35 8.5-1.79 11.5 1.05 6 13.21-11 16.23-18.8 21.68-14.96 12.5-34.08 17.45-51.39 25.64-49.81 20.05-102.6 32.65-156.07 38.18-7.89 1.06-16.01 0.89-23.73 2.95-49.15 0.62-100.17 7.62-147.54-8.4-19.71-6.56-39.66-12.22-59.41-18.19-11.1-3.98-21.78-8.98-32.74-13.31-8.17-5.47-18.83-5.64-26.4-12.1-2.33-4.75 0.08-9.03 5.24-9.1 5.37 2.99 10.96 5.47 16.76 7.59 10.3 5.51 21.92 7.98 32.81 12.05 17.73 6.47 35.85 12.95 54.25 17.82 43.67 15.74 90.65 14.66 136.58 12.19 8.17 0.8 16.33-0.56 24.45-1.26 36.27-3.34 72.98-7.78 108.08-18.02 23.15-6 44.93-16.11 67.67-23.36 12.01-6.2 26.26-8.26 36.52-17.6 7.92-4.87 17.42-9.61 22.22-17.81z"/>
<path id="path184" fill="#c67f42" d="m1032.9 869.37c0.3 0.27 1 0.82 1.3 1.09l0.2 0.79c5.7 12.67-9.8 16.93-18 22.45-5.4 1.38-5 11.03-11.5 8.67 2.2 5.3 9.4 3.46 8.5-1.98 5.4 3.39 1.6 12.97-2.5 16.54 7.9-5.93 3 8.95 10.4 3.36-9.6 6.02-8.9 19.05-18.6 25.67-3.29 1.84-9.05-2.84-10.03 2.68-0.98 5.85-7.24-4.14-7.32 1.26 2.53 7.46-9.14 14.41-14.29 9.31-2.25 2.05-3.49 4.94-5.57 7.15-0.92 0.57-1.83 1.15-2.73 1.74-3.23 0-6.28 0.03-9.44 0.29 1.13-3.28 5.59-11.26 4.19-3.35 4.26-0.79 8.13-14.06-0.91-8.59-6.03 0.29 4.63-14.18-3.46-12.42 2.81-7.84-7.08-16.04 0.17-22.41 3.95 0.43 6.62-2.64 9.4-4.93 17.31-8.19 36.43-13.14 51.39-25.64 7.8-5.45 24.8-8.47 18.8-21.68z"/>
<path id="path186" fill="#ca8c56" d="m1058.6 892.13c9.2-4.91 10.9 9.33 8.3 14.82-4.6 1.95-3.1-10.03-5.3-3.25 3.9 5.51 5 11.86 3.6 18.54-5.6 50.39-12.3 100.66-19.1 150.86-19 109.1-23.6 219.9-33.1 330-3.6 48.7-3.9 97.9-11.9 146.3-10.72-12.4-3.86-30.8-9.23-45.5-7.43-14.1 0.19-33.5-14.66-43 5.1-7-0.97-14.9-2.27-22.5 5.2 3.9 9.67-7.3 12.07-0.2 5.67 1.8 0.05-7 3.64-11-7.11-1.9-2.91-7.3 1.3-9.9 1.71 1.8 5.35 9.8 5.76 3.9-5.72-5.5 8.69 0.3 3.49-8.3-6.07-3.6 3.6-8.1 4.8-3.4 3.4-5.1 6.1-14 4.8-20.4-9.3 2.4-6.9-12.6-0.1-10.8-1.1-4.7 0.6-9.1 3.5-12.8-4.6 0.8-3.9-7.3-9-4.9-1.1-3 7.7-15.6-1.5-14.3-9.01-1.9 1.4-9.2-3.5-14.2-6.84-6-1.28-14-3.85-20.9 9.15-7.3-2.59-20.6 7.05-26.9-6.07-6.3 2.8-7.4 5.4-10.4-5.4-3.5-2.2-12.1-3-18.5 8-0.2-1.6-10.5 5-13.4-6.3-5.8 2-15 0-18.9 4.5 1.4 3.1-6 1.2-8.3-2.1-10.9 4.2-20.8 8.7-29.2-11 0.5-1-3.6-0.5-9.5-3.8 1.6-5.2 5.1-4.3-3 0.4-8.4 8.1 5.2 9.1-1.9-5.4-4.6-13.5-14.3-4.6-22.4-5.3-0.9-0.4-4.7 1.2-7.6-9.3-5.7 0.1-17.5-1.1-26.2-3-6.2 10-15.5 1.9-16.7 2-24.9 0.8-48.7 5.1-73.9-1.8-26.28 10.2-50.76 10.4-76.64 8.8-4.63 2-19.64-5.6-19.75 1.5-1.77 1.9-4.1 2.6-6.18-0.7 7.16 9.8-5.86 7.3 5.38 0.4 11.7 9-11.68 15.8-5.43-0.3-6.87-7.5-6.42-12.2-4.04 1.3-2.44 3.1-5.51 6.3-4.06-3.8-6.1 2.6-17.5 3.6-4.19 8.6 1.08-7-14.78 2.9-17.36z"/>
<path id="path188" fill="#bb7f4b" d="m837.44 905.47c1-6.93 8.47-5.6 13.39-3.42 9.71 4.16 13.23 14.04 20.04 20.99-1.34 5.77-9.35-3.93-7.61 5.5 8.08 0.61 20.97-0.55 31.73-1.45-35.1 10.24-71.81 14.68-108.08 18.02 1.83-1.81 2.81-3.91 0.1-5.39 5.18-4.64 14.52 3.39 21.01 0.13 9.86-1.75 3.05-15.78 9.96-20.89 5.39-6.22 17.39-4 19.46-13.49z"/>
<path id="path190" fill="#c89a64" d="m512.62 934.09c-4.62-9.25 3.85-20.35 4.2-28.27 7.57 6.46 18.23 6.63 26.4 12.1 4.71 15.92 2.54 36.26 14.26 48.77 14.94-2 9.3-24.88 9.93-34.83 2-6.53 1.62 6.05 5.79 3.51-2.29 12.57 5.39 23.12 3.07 37.05 3.22 2.92 7.65 4.22 10.99 7.09l-0.04 1.52c-4.28 1.41-7.71-3.45-11.87-4.28-0.53-0.23-1.58-0.7-2.11-0.94-4.49-3.34-10.66-2.61-15.1-6.13-3.8-2.45-7.45-5.09-11.07-7.76-9.9-11.38-20.09-22.37-31.35-32.8-2.89-2.59-2.99 2.9-3.1 4.97z"/>
<path id="path192" fill="#b46735" d="m806.64 954.87c53.47-5.53 106.26-18.13 156.07-38.18-2.78 2.29-5.45 5.36-9.4 4.93-7.25 6.37 2.64 14.57-0.17 22.41-8.32-2.1-17.04-0.23-21.12 7.98 1.9 3.27 4.79 6.37 3.13 10.45 3.96-2.64 6.61 1.49 3.88 5.51-5.27 1.88-10.2 4.75-14.41 8.48-4.41 1.3-15.08-2.86-13.63 3.37-2.1-9.26-23.23-1.54-15.75 7.97 1.28 5.89-5.06 12.61-10.85 12.91-8.09 6.4 11 6.8 3.68 13.3-2.46 7.6-6.95-5.2-9.75 1.2 4.19 7.4-0.64 17.4-6.3 22.9-0.04-7.7 10.82-18.1 0.75-24.9-6.82 0.1-0.19-12.6-5.59-10.1-0.2 4.4-2.39 7.5-6.4 9.4 5.64-1.1 4.3 7.4 9.75 8 4.28 5.7-5.09 2.7-7.57 0.7 2.42 5.4-3.95 9.2-4.42 14.5-3.24-4.9-0.96-9.8 4.4-10.7-5.74-2.8 0.08-8.2-6.37-8.4-0.03-3.8 4.21-7.3 0.53-11.5 2.68-3.1 5.16-5.89 1-9.03 7.59-2.46 9.12-19.22-1.42-18.36 0.52-8.9-16.85-4.77-14.56-12.5 7.64 10.23 9.77-20.25 3.26-8.93-1.12 1.79-4.79-4.6-4.83-0.76-0.68 11.29-2.13-5.89-5 1.66-5.35-5.1-19.6 1.15-28.91-2.31z"/>
<path id="path194" fill="#c08247" d="m543.22 917.92c10.96 4.33 21.64 9.33 32.74 13.31 1.05 16.51 8.97 32.06 11.3 48.28-3.34-2.87-7.77-4.17-10.99-7.09 2.32-13.93-5.36-24.48-3.07-37.05-4.17 2.54-3.79-10.04-5.79-3.51-0.63 9.95 5.01 32.83-9.93 34.83-11.72-12.51-9.55-32.85-14.26-48.77z"/>
<path id="path196" fill="#ca9f6e" d="m762.81 940.1c0.09-7.47 11.13-5.56 11.41-12.9 5.36 1.63 6.24 10.79 12.79 12.52 2.71 1.48 1.73 3.58-0.1 5.39-8.12 0.7-16.28 2.06-24.45 1.26 0.08-2.1 0.21-4.19 0.35-6.27z"/>
<path id="path198" fill="#ddb687" d="m512.62 934.09c0.11-2.07 0.21-7.56 3.1-4.97 11.26 10.43 21.45 21.42 31.35 32.8-13.41-3.72-15.82-20.59-28.47-24.28 5.54 18.54 3.09 38.51 8.17 57.27 2.36 27.79 20.69 49.49 25.86 76.29-0.9 8 0.58 16.1 3.55 23.5 13.55 19.9 9.67 45.5 19.3 66.9 5.17 41.3 15.09 83 21.64 124.5-4.65-14.8-6.1-32.6-13.1-46.4-6.24-2.4 7.16-7.6-0.74-9.6-1.18-4.1 3.61-14.1-4.13-16.3 6.89-8-3.89-18.5-2.96-27.9 1.15-5.5-8.8-11.9-6.76-3.4-1.16 5.9-2.98-4.4-6.64 0-0.82-1.3-1.74-13.5 3.4-10.6-0.55 4.8 12.58 7.3 6.46 1.6 1.14-4.3 1.66-12-4.21-13.8 0.65 2.3-0.63 7.5-2.91 6.7-1.71-11.6-11.71-17.9-8.74-30.8 6.78 2.5 3.4 12.5 9.67 13.3 0.24-8.5-6.61-16.3-2.17-24.5-4.18 2.8-10.08 0-13.21-2 3.24-9.2 1.4-17.2-4.32-24.5-3.74-15.4-5.17-31.7-7.56-46.9-1.34-19.2-12.19-35.2-14.86-54.31-6.05-20.72 0.36-44.02-11.72-62.6z"/>
<path id="path200" fill="#cf965e" d="m1017.1 938.04c3.3-5.01 10.9-5.61 15.2-10.03 7.6 0.11 14.4 15.12 5.6 19.75-0.2 25.88-12.2 50.36-10.4 76.64-4.3 25.2-3.1 49-5.1 73.9 8.1 1.2-4.9 10.5-1.9 16.7 1.2 8.7-8.2 20.5 1.1 26.2-1.6 2.9-6.5 6.7-1.2 7.6-8.9 8.1-0.8 17.8 4.6 22.4-1 7.1-8.7-6.5-9.1 1.9-0.9 8.1 0.5 4.6 4.3 3-0.5 5.9-10.5 10 0.5 9.5-4.5 8.4-10.8 18.3-8.7 29.2 1.9 2.3 3.3 9.7-1.2 8.3 2 3.9-6.3 13.1 0 18.9-6.6 2.9 3 13.2-5 13.4 0.8 6.4-2.4 15 3 18.5-2.6 3-11.47 4.1-5.4 10.4-9.64 6.3 2.1 19.6-7.05 26.9 2.57 6.9-2.99 14.9 3.85 20.9 4.9 5-5.51 12.3 3.5 14.2 9.2-1.3 0.4 11.3 1.5 14.3 5.1-2.4 4.4 5.7 9 4.9-2.9 3.7-4.6 8.1-3.5 12.8-6.8-1.8-9.2 13.2 0.1 10.8 1.3 6.4-1.4 15.3-4.8 20.4-1.2-4.7-10.87-0.2-4.8 3.4 5.2 8.6-9.21 2.8-3.49 8.3-0.41 5.9-4.05-2.1-5.76-3.9-4.21 2.6-8.41 8-1.3 9.9-3.59 4 2.03 12.8-3.64 11-2.4-7.1-6.87 4.1-12.07 0.2-1.27-6.4-1.74-12.8-1.92-19.2-0.12-13.5-3.29-26.7-1.74-40.2 1.38 10 0.87 20.4 3.5 30.2 8.13-1.8 2.51-12.5 8.85-16.6-1.66-12 1.02-24 3.62-36.2-0.12-5.3-3.56-13.2 2.93-15.9 4.27-24.2 3.14-49.1 9.67-72.9-0.77-25.6 10.65-50 8.55-75.7 3.8-28.3 3.4-57.6 9-85.3 3-54 7.7-109.72 19.3-163.67 0.7-13.76-12.3-10.97-19.6-4.89z"/>
<path id="path202" fill="#c6743d" d="m575.96 931.23c19.75 5.97 39.7 11.63 59.41 18.19-2.08 1.04 0.26 5.86 1.94 3.97 4.33-6.25 5.54 6.86 7.75 9.34-8.16-1.48 1.96 9.53 2.33 0.76 9.8 0.96-5.28 12.55 2.38 16.55-9.23 8.58 14.24 3.3 8.45 11.97 3.28 3.46 4.68-9.08 7.74-3.03-2.37 7.05 13.97 2.53 7.19-1.96-7.04-4.15 10.87-8.94 7.96-0.85-3.13 6.35 6.64 7.25 9.8 3.69 4.83-5.22 7.37 5.3 12.79 3.85-1.85 4.45 0.17 9.69 2.47 12.99 2.66-3.3 1.07-9.93-0.2-14.56 18.23 6.96 37.75 10.36 57.14 12.46 15.49-5.84 34.39-6.27 50.06-13.53-2.07-2.47-7.59-0.97-6.12-6.13-7.69 1.32-8.03-14.33-17.05-9.27-1.82-7.77-3.77 3.58-5 6.25-4.16-1.52-4.14-10.62-10.42-6.75-8.43 3.76-10.79-6.68-12.53-11.35 5.47-6.44 14.62-0.95 20.86-6 7.72-2.06 15.84-1.89 23.73-2.95 9.31 3.46 23.56-2.79 28.91 2.31 2.87-7.55 4.32 9.63 5-1.66 0.04-3.84 3.71 2.55 4.83 0.76 6.51-11.32 4.38 19.16-3.26 8.93-2.29 7.73 15.08 3.6 14.56 12.5 10.54-0.86 9.01 15.9 1.42 18.36 4.16 3.14 1.68 5.93-1 9.03 3.68 4.2-0.56 7.7-0.53 11.5 6.45 0.2 0.63 5.6 6.37 8.4-5.36 0.9-7.64 5.8-4.4 10.7 0.47-5.3 6.84-9.1 4.42-14.5 2.48 2 11.85 5 7.57-0.7-5.45-0.6-4.11-9.1-9.75-8 4.01-1.9 6.2-5 6.4-9.4 5.4-2.5-1.23 10.2 5.59 10.1 10.07 6.8-0.79 17.2-0.75 24.9 5.66-5.5 10.49-15.5 6.3-22.9 2.8-6.4 7.29 6.4 9.75-1.2 7.32-6.5-11.77-6.9-3.68-13.3 5.79-0.3 12.13-7.02 10.85-12.91-7.48-9.51 13.65-17.23 15.75-7.97-1.45-6.23 9.22-2.07 13.63-3.37 4.21-3.73 9.14-6.6 14.41-8.48 2.73-4.02 0.08-8.15-3.88-5.51 1.66-4.08-1.23-7.18-3.13-10.45 4.08-8.21 12.8-10.08 21.12-7.98 8.09-1.76-2.57 12.71 3.46 12.42 9.04-5.47 5.17 7.8 0.91 8.59 1.4-7.91-3.06 0.07-4.19 3.35-5.91 1.31-12.42 0.52-17.93 3.27 10.57 61.24 1.01 123.54 2.44 185.74-5.78 1.8 1.74 3.9-0.27 8-0.82 62.8-5.23 125.5-5.78 188.3-1.18 93-12.69 186.2-7.79 279.2 2.65 0.6 5.65-9.6 3.35-13.7 6.95-73.1 6.9-147 13.38-220.2 0.83-6.3-0.36-13.6 5.04-18.2 7.08-1.5 14.46 5.6 14.8 12.6-4.81 0.9-9.7 9.2-1.77 6.4 5.84-5.6 0.08 6 4.42 3.4 1.6-11.5 4.8-0.2 4.18 4.6-0.9 5.2 6.65 5.7 5.63 11.4 0.18 6.4 0.65 12.8 1.92 19.2 1.3 7.6 7.37 15.5 2.27 22.5 14.85 9.5 7.23 28.9 14.66 43 5.37 14.7-1.49 33.1 9.23 45.5-7.59 62.5-3.52 126.1-16.82 188-1.39 3.5 0.72 6.3 3.52 7.9-3.21 0.7-3.8-3.8-5.62-3.8-9.12 19.6-14.06 41.6-21.71 62.1 0.04 10-8.37 17.5-5.74 27.5-11.03 0.7-9.13 19.3-20.19 19.9 2.05-7.3-6.22-1.5-8.76 0.9-0.96 0.3-1.92 0.7-2.86 1 8.42-9.9 16.33-21.1 20.42-33.7 1.72-3.7 0.11-7.3-3.77-5.9-10.91 14.1-19.57 32-37.47 38.5 3.89-10.8-8.05-2.7-11.56 1.2-5.47 1.7-11.78 0.5-17.48 2.1 7.42-7 22.3-5.4 25.27-16.7 10.86-6.6 20.41-16.1 27.93-26.1 7.52-7.7 12.23-17.7 20.42-24.8 2.38-13.9 12.46-25.3 12.73-39.7 0.89-3.4 5.04-4.6 6.44-7.7-11.31-4.9-0.27-18.6-5.14-26.6-0.61-8.7-11.96-7.5-14.46-1.2-22.53 14.3-46.63 26.7-67 43.9-13.3 6.5-22.78 20.3-38.43 21.8-3.68-2.1-6.83 4.7-6.28-1.5-3.27-5.2-3 7.1-8.21 4.3-10.34 4-8.3-9-17.22-10-0.11-9.6 16.96-1.5 12.1 4.4 7.19-0.6 2.02-7.1 6.78-8.5 3.04-11-7.95 4-9.7-3.8-0.83-1.8 4.39 1.3 3.36-1.7-7.77-3.2 6.74-5.4 8.82-10.7 8.29 3-6.46-15.1-4.08-4 0.39 10.1-7.73-6.8-1.43-7 10.99 0.1-16.68-6.3-5.55-8.2 5.96 1.9 1.55-6.3-1.59-2.6-1.63-8.5-5.98-9.3-11.47-4.4-8.31 2.3-0.05 13.3-6.3 16.6-5.3-5.6 1.64-19.2 10.02-22.4 13.52 4.5 2.07-9.3 8.55-14.7-1.85-4.2-9.87-10.6-8.16-1.6-4.58-5.9-11.85-8.9-17.32-2.5-4.66-8 2.25-7.7 9.04-8.2 3.65-4.6 7.23-9.3 13.13-11.1 1.26-5.4-0.65-15.4-7.96-14-3.55-3 9.88-9.4 1.32-7.8-5.41 3-4.13-7.6-8.6-2.6 4.36-11.3-21.8-4.5-12.14-13.9 4.07-0.6 7.2-4.4 11.7-4.3-0.27 3.5-4.34 4.4-6.68 6.4 3.67 5.4 5.86-4.6 10.29-1.8 1.17 2.9-0.36 5.9-0.96 8.8 5.84-2.7 7.19-12.1 12.38-13.2-1.23-4 7.62-6.2 2.36-10-2.11 4.6-7.63 1.6-10.89 0.4 5.77-4.3 6.54-12.8 7.78-19.4-5.71 1.4-1.45 12.5-9.29 13.4-1.87-2.1-12.5-8.2-7.82-1-2.86 5.6-4.06-6.8-9.86-2.8-1.1-9.7 3.9-11 7.06-2.6 1.65-5.7 6.83-10.2 5.68-16.4-5.42-3.5-2.27 10-5.15-1.3-5.31-1.5-1.23 7.5-5.37 8.7-2.5-2.5-7.37-5.2-7.59-8.6 5.7-2.4 5.46-8.2 3.97-13.2-7.82-0.4-3.93 13.5-9.1 13 5.3-14.3-11.52-5.4-9.48-17.1 3.95 1.6 5.33 10.1 10.06 2.6-9.04-5.2-3.72-17.9 3.22-23.6 11.68 5.5-2.79 21.4 12.75 26-1.89-3.2-8.17-5.6-2.18-9-3.45-2.8-3.6-7.8-1.39-11.4-2.34-2.9-16.83-18.3-14.49-6-9.61-2.2 0.98-7.2 1.6-12-8.07-2.9-6.22 10.4-13.16 3.7-0.18-4.9 10.75-14.6 15.64-8.5 2.98-2.4 2.86-8.1 4.11-11.8-4.3 1.1-7.14 5.8-11.73 5.6-0.06-7.8 10.12-9.1 12.97-15.3-7.01 4.5-2.49-7.2-7.43-10.3-2.89-6.1-2.99 6.6-5.54 3.4 1.72-7.1-6.02-12.9-10.03-5.5 3.68 2.8-7.02 7.9 1.11 8.5 11.01 2.3-2.99 6.6-6.34 3.5 1.21-2.9-1.26-20.1-2.87-7.7-2.52 5.3-0.06-6.4-3.45-4.1-8.21-55.2-11.35-111.1-24.21-165.4-5.21-41.4-13.09-82.5-22.79-122.6-11.24-49.6-15.89-101.6-25.28-150.7-3.36-20.9-12.5-41.7-25.07-58-11.22-2.3-19.39-24.84-33.38-13.21 3.88 13.91 0.45 29.51 7.05 42.71 1.69 22.8 5.51 45.4 6.69 68.2 0.27-6.3-6.8-5.5-4.89-10.5-4.3-0.7-10.3-5.6-6.36-10 4.12-2.5-2.71-10.2 4.36-8.3-4.56-9.9-10.16-23.2-5.79-34.2-0.79-3.7-5.85-16-10.18-10.4-5.96-4.7 5.37-7.8 5.38-1.6 1.52 0 4.18-6.7-0.39-4.7-2.24-2.9 4.86-10.1-0.4-13.1-3.2-3.7-7.81 1.6-10.62-2.9 11.09 0.2 3.05-17.82-3.68-20.13-3.76 2.69-1.51-2.38-2.37-4.57-0.62-5.12-6.59-6.31-10.54-8l-0.12-0.77 0.04-1.52c-2.33-16.22-10.25-31.77-11.3-48.28z"/>
<path id="path204" fill="#d5a977" d="m1017.1 938.04c7.3-6.08 20.3-8.87 19.6 4.89-11.6 53.95-16.3 109.67-19.3 163.67-5.6 27.7-5.2 57-9 85.3 2.1 25.7-9.32 50.1-8.55 75.7-6.53 23.8-5.4 48.7-9.67 72.9-6.49 2.7-3.05 10.6-2.93 15.9-2.6 12.2-5.28 24.2-3.62 36.2-6.34 4.1-0.72 14.8-8.85 16.6-2.63-9.8-2.12-20.2-3.5-30.2 1.04-17.4-2.19-34.8-0.25-52.2 0.14 2 1.54 4.8 2.81 1.8 8.27-35.9 12.74-73.2 17.63-109.1 2.73-30.4 11.63-59.9 12.53-90.6 5.5-64 18.1-127.2 25.7-190.81-6.1-0.54-11.3 3.06-17 4.73-0.4 0.05-1.1 0.16-1.5 0.21 1.6-2.11 3.7-3.63 5.9-4.99z"/>
<path id="path206" fill="#eecead" d="m518.6 937.64c12.65 3.69 15.06 20.56 28.47 24.28 3.62 2.67 7.27 5.31 11.07 7.76-0.37 0.08-1.11 0.22-1.48 0.29 11.17 54.83 12.3 111.33 24.31 165.83 3.36 30.7 8.55 61 13.64 91.4 6.69 17.4 1.69 36.7 8.35 54-0.95 12.5 2.64 25.4 0.78 37.6-2.82-2.9-1.2-11.1-5.02-15.1 0.38-5.9-0.74-11.8-1.6-17.6-6.55-41.5-16.47-83.2-21.64-124.5-9.63-21.4-5.75-47-19.3-66.9-2.97-7.4-4.45-15.5-3.55-23.5-5.17-26.8-23.5-48.5-25.86-76.29-5.08-18.76-2.63-38.73-8.17-57.27z"/>
<path id="path208" fill="#eed6be" d="m1012.7 942.82c5.7-1.67 10.9-5.27 17-4.73-7.6 63.61-20.2 126.81-25.7 190.81-8.33 38.4-11.16 81-20.54 119.6 1.7-99.7 16.48-198.7 25.14-298.05 0-3.12 3.1-4.86 4.1-7.63z"/>
<path id="path210" fill="#e0bf92" d="m987.99 960.05c8.16-5.11 16.91-9.47 23.21-17.02 0.4-0.05 1.1-0.16 1.5-0.21-1 2.77-4.1 4.51-4.1 7.63-8.66 99.35-23.44 198.35-25.14 298.05 9.38-38.6 12.21-81.2 20.54-119.6-0.9 30.7-9.8 60.2-12.53 90.6-4.89 35.9-9.36 73.2-17.63 109.1-1.27 3-2.67 0.2-2.81-1.8 0.02-1.2 0.09-2.4 0.21-3.6 0.78-39.1-5.33-79.3-12.37-117.6-1.42-47.1-2.87-94.9-2.22-142 3.91-30.3-3.54-60.7 1.15-90.86 8.7-6.33 21.87-6.43 30.19-12.69z"/>
<path id="path212" fill="#b86734" d="m637.31 953.39c-1.68 1.89-4.02-2.93-1.94-3.97 47.37 16.02 98.39 9.02 147.54 8.4-6.24 5.05-15.39-0.44-20.86 6 1.74 4.67 4.1 15.11 12.53 11.35 6.28-3.87 6.26 5.23 10.42 6.75 1.23-2.67 3.18-14.02 5-6.25 9.02-5.06 9.36 10.59 17.05 9.27-1.47 5.16 4.05 3.66 6.12 6.13-15.67 7.26-34.57 7.69-50.06 13.53-19.39-2.1-38.91-5.5-57.14-12.46 1.27 4.63 2.86 11.26 0.2 14.56-2.3-3.3-4.32-8.54-2.47-12.99-5.42 1.45-7.96-9.07-12.79-3.85-3.16 3.56-12.93 2.66-9.8-3.69 2.91-8.09-15-3.3-7.96 0.85 6.78 4.49-9.56 9.01-7.19 1.96-3.06-6.05-4.46 6.49-7.74 3.03 5.79-8.67-17.68-3.39-8.45-11.97-7.66-4 7.42-15.59-2.38-16.55-0.37 8.77-10.49-2.24-2.33-0.76-2.21-2.48-3.42-15.59-7.75-9.34z"/>
<path id="path214" fill="#dfa976" d="m965.49 966.36c7.61-1.71 14.76-5.02 22.5-6.31-8.32 6.26-21.49 6.36-30.19 12.69-4.69 30.16 2.76 60.56-1.15 90.86-0.65 47.1 0.8 94.9 2.22 142 7.04 38.3 13.15 78.5 12.37 117.6-2.54-9.9 0.83-22-5.08-30.5 3.59-28.7-8.16-55.9-9.99-83.9-4.64-78.7-0.58-159.5-2.89-239.23 3.16-0.47 6.88 1.03 9.48-1.47 0.9-0.59 1.81-1.17 2.73-1.74z"/>
<path id="path216" fill="#d7925b" d="m935.39 971.66c5.51-2.75 12.02-1.96 17.93-3.27 3.16-0.26 6.21-0.29 9.44-0.29-2.6 2.5-6.32 1-9.48 1.47 2.31 79.73-1.75 160.53 2.89 239.23-9.45 7.6-5.58 23-8.47 33.6-1.05 45.8-2.94 92.5-5.72 138.6-0.58 6-4.5 12.2-1.26 18-6.48 73.2-6.43 147.1-13.38 220.2 2.3 4.1-0.7 14.3-3.35 13.7-4.9-93 6.61-186.2 7.79-279.2 0.55-62.8 4.96-125.5 5.78-188.3 2.01-4.1-5.51-6.2 0.27-8-1.43-62.2 8.13-124.5-2.44-185.74z"/>
<path id="path218" fill="#ebc597" d="m556.66 969.97c0.37-0.07 1.11-0.21 1.48-0.29 0.42 9.91 12.3 3.37 13.19 12.05 2.61 17.92 8.24 36.47 3.16 54.37 6.65 25.2 7.87 50.8 10.87 76.5 3.62 6.9 4.08 14.9 3.91 22.6 6.97 44.6 11.54 90.6 26.87 132.7-7.53-13.5-17.06 2.9-13.18 13.3-6.66-17.3-1.66-36.6-8.35-54-5.09-30.4-10.28-60.7-13.64-91.4-12.01-54.5-13.14-111-24.31-165.83z"/>
<path id="path220" fill="#e0bc8c" d="m558.14 969.68c4.44 3.52 10.61 2.79 15.1 6.13 12.04 84.89 14.93 171.39 36.18 254.59 0.83 5.4 5.96-2 6.65 2.8 2.62 9.5 5.35 19 7.19 28.7 5.79-3.6 0.53-17.2 6.76-22.2 7.42 23.4 5.77 48.8 11.93 72.2 0.5 28.6 9.7 54.2 11.1 83 8.8 32.7 5.58 66.4 11.89 100.5 3.41 10.8 0.22 22.6 4.33 33.4 1.03 2.1 0.93 12.8-3.25 9-11.78-43.2-11.2-88.1-19.87-131.8-7.74-13.9 0.81-32-9.72-44.4-5.04-5.8-0.96-21.5-12.24-18.5-4.9 109.3 7.21 219.5 36.68 325 2.32 13.8 5.33 27.5 9.39 40.9-0.29 1.8 0.54 4.7-1.95 5-15.47-40.3-21.7-82.8-30.17-125-10.42-22-4.73-49-12.63-72.6-0.32-71.7-19.38-142.3-26.79-212.7 3.82 4 2.2 12.2 5.02 15.1 1.86-12.2-1.73-25.1-0.78-37.6-3.88-10.4 5.65-26.8 13.18-13.3-15.33-42.1-19.9-88.1-26.87-132.7 0.17-7.7-0.29-15.7-3.91-22.6-3-25.7-4.22-51.3-10.87-76.5 5.08-17.9-0.55-36.45-3.16-54.37-0.89-8.68-12.77-2.14-13.19-12.05z"/>
<path id="path222" fill="#e5ab71" d="m573.24 975.81c0.53 0.24 1.58 0.71 2.11 0.94 8.01 11.84 2.82 27.45 7.48 40.35 5.65 1.1 5.05 7.3-1 5.7 2.5 8.7-1.77 26 10.48 23.3-2.28 7.1-7.62 17.8 0.69 24.4 5.95-3.2 7.16 9.1 1.08 5.3-9.75-2.5 8.94 6.2 2.52 8.6-4.66-4.5-2.13 8.3-6.18 3.2-1.24-6.4-2.75-0.4-2.27 3.6 6.96 0 10.81 7 6.84-3.3 8.5 8.3 7.71 24.4 7.71 37 3.26-4.5 2.26 4.1 4.99 0.7 3.92-3.9 2.6 5.4 1.89 8.3 7.09 8.1 2.66 22.6-4.48 29 6.04 1.1 7.33 11.7 13.19 7.3 7.22-0.5-3.78 15.7 5.47 11.8 1.21 16.9-0.49 34.2 8.6 50 8.24 46.3 10.83 93.2 21.4 139.1 4.04 41.6 15.49 82.5 11.18 124.3-6.31-34.1-3.09-67.8-11.89-100.5-1.4-28.8-10.6-54.4-11.1-83-6.16-23.4-4.51-48.8-11.93-72.2-6.23 5-0.97 18.6-6.76 22.2-1.84-9.7-4.57-19.2-7.19-28.7-0.69-4.8-5.82 2.6-6.65-2.8-21.25-83.2-24.14-169.7-36.18-254.59z"/>
<path id="path224" fill="#e1a065" d="m575.35 976.75c4.16 0.83 7.59 5.69 11.87 4.28l0.12 0.77c7.57 50 18.67 99.3 32.48 148 4.59 18.9 2.94 39.6 9.65 57.9 1.34 6.7-2.41 16.1 4.42 20.4 4.4-7.3 6.53 3.9 2.32 6.9 10.04 3.3-2.74 24.4 8.49 23.8-6.05 6.4-6.39 19.8-0.9 27.4-6 8.4-2.63 21.4 0.9 31.1-4.53 9.5 11.68 9.9 9.23 21.5-4.22 4.2-3.37-7.2-7.95-5.6 2.42 15.2 7.43 28.8 7.65 44.1-2.54 7.2 8.92 11 3.31 17.3 5.48-3.1 4.65 1.9 0.47 3.8-1.46 14 6.09 25.7 6.14 39.9 7.43 13.7 1.08 33.2 7.03 49.5-3.7 2.7-1.71 4.4 1.74 5.9 2.91 10.5-6.74 20.4 2.59 29.4-8 14.6 6.42 27.9 1.49 42.3 0.21 7.3 6.27 18.1-2.4 22.7-0.79-1.3-1.54-2.6-2.22-4-2.81-8.5-3.13-17.7-5.76-26.3 4.18 3.8 4.28-6.9 3.25-9-4.11-10.8-0.92-22.6-4.33-33.4 4.31-41.8-7.14-82.7-11.18-124.3-10.57-45.9-13.16-92.8-21.4-139.1-9.09-15.8-7.39-33.1-8.6-50-9.25 3.9 1.75-12.3-5.47-11.8-5.86 4.4-7.15-6.2-13.19-7.3 7.14-6.4 11.57-20.9 4.48-29 0.71-2.9 2.03-12.2-1.89-8.3-2.73 3.4-1.73-5.2-4.99-0.7 0-12.6 0.79-28.7-7.71-37 3.97 10.3 0.12 3.3-6.84 3.3-0.48-4 1.03-10 2.27-3.6 4.05 5.1 1.52-7.7 6.18-3.2 6.42-2.4-12.27-11.1-2.52-8.6 6.08 3.8 4.87-8.5-1.08-5.3-8.31-6.6-2.97-17.3-0.69-24.4-12.25 2.7-7.98-14.6-10.48-23.3 6.05 1.6 6.65-4.6 1-5.7-4.66-12.9 0.53-28.51-7.48-40.35z"/>
<path id="path226" fill="#d47f42" d="m587.34 981.8c3.95 1.69 9.92 2.88 10.54 8 0.86 2.19-1.39 7.26 2.37 4.57 6.73 2.31 14.77 20.33 3.68 20.13 2.81 4.5 7.42-0.8 10.62 2.9 5.26 3-1.84 10.2 0.4 13.1 4.57-2 1.91 4.7 0.39 4.7-0.01-6.2-11.34-3.1-5.38 1.6 4.33-5.6 9.39 6.7 10.18 10.4-4.37 11 1.23 24.3 5.79 34.2-7.07-1.9-0.24 5.8-4.36 8.3-3.94 4.4 2.06 9.3 6.36 10-1.91 5 5.16 4.2 4.89 10.5 2.3 13.6 3.6 27.2 5.96 40.8 1.01 15 2.3 30 4.39 45-5.13 2.9-5.15-3.8-7.54-6.7-6.19-16-10.49-32.8-11.86-50.1 1.94-4-0.53-7.4-3.95-9.4-13.81-48.7-24.91-98-32.48-148z"/>
<path id="path228" fill="#8b5239" d="m619.08 999.29c13.99-11.63 22.16 10.91 33.38 13.21 12.57 16.3 21.71 37.1 25.07 58 9.39 49.1 14.04 101.1 25.28 150.7 9.7 40.1 17.58 81.2 22.79 122.6 12.86 54.3 16 110.2 24.21 165.4 1.97 21.8 4.72 43.5 7.28 65.3-6.67 5.6-3.13-9-8.49-5.7-8 0.2-1.37 12.8-12.02 8.6 3.75-4.4-3.77-20 4.1-10.3 4.19-6.6-0.99-11-6.88-5.4-0.11 8.5-0.53 17-3.24 24.7-8.19-0.6 3.72-17.1-5.29-18.8-6.19 9.2-8.58-9.2 1.16-8.4-4.06-6.1 5.96-9-1.38-12.9-2.26 4.7-7.51 1.7-11.66 4.4-0.39-8.9 10.66 0.2 8.63-9.5 1.38-5.5-14.74-7.4-7.65-3.1-1.11 2.4-1.47 6.1-3.33 7.6-2.93-0.7-6.12-14.1-1.27-10.6 0.89 5.9 2.6-1.6 3.46-3.9-5.81 4.6-15.26-2.8-12.3-9.2 3.87 0.6 2.38 7.8 6.87 6.8-1.26-7-9.49-20.1 0.95-23.8-1.36 11.9 8.15-0.7 11.8-4.6-0.77-8.9-8.98 4.5-10.91-4.2 5.81-0.7 0.4-4.8-2-0.4-6.52-1.4 4.59-12.5-5.93-10.3-5.91-4.4 2.4-7.7-1.21-13-2.83-7 6.28-3.1 10.28-5.5-0.89-6.5-15.14-1.5-12.5-9.5 3.03-2.1 9.8 5.7 6.71-3.2-4.59-5.8 6.71-6.2 9.71-6.3 0.67-6.9-11.85-2.4-7.59-12.7 4.27 11.1 10.79-14.2 3.27-11.9-3.15 11.2-8.86-1.1-10.23-6.6-4.98-6.2 3.3-13.1-2.7-19.2-4.37-3.1 0.46 7.3-4.27 3.7-0.15-3.7-3.12-11.5 3.51-10.4 0.93-5.3-8.72-0.1-6.06-5.2 4.03-2.7 1.96-11.2-2.57-11.5 2.64 5-3.03 7.3-0.49 11.8-5.61-1.3 1.28-7.6-2.44-11 5.07-1.8 5.8-10.4 0.25-7.8-5.85-8.2 3.74-6.7 8.39-8.6 0.37-6.6-9.87-11.2-5.18-17.8 1.36-2.8-2-0.8-2.66 0.4-8.29 4.9 0.77-8.1-5.33-5.5-2.73-4.8 13.48-13.6 3.84-16.8-0.25 9.5-4.7-4.3-8.3-5.7 8.86-2.4 7.32-14.4 4.25-21.1 2.69-3.2 0.64-10.5-4.37-8.7-1.34-7 5.61-12.2 7.43-18.1-14.18 3.2-4.23-12.1-7.31-16.5-8.65-2.6 1.08-13.1-3.85-17.3-11.72 2.5 6.79-21-3.53-14.7-6.16 3.9 0.34-5.4-4.51-7.2 0.59-4.4 6.85-6.4 6.24-12-9.64 0 3.23-17.9-9.03-18.9 5.01-2.7 5.52-22.1-0.55-12.1-2.04-2.9 3.46-10.4-2.16-13.2 6.75 2.5 10.41-13.9 3.3-5.5 0.82-6.9-7.4 1.4-3.91-6.9 2.91-9.3-9.89-15.3-5.05-24.9-4.98 8.3 0.31-8.3-6.72-4.3-3.56-3.6 4.1-2.7 2.4-6.4-6.51-2 0.1-8.3-3.7-13.1-1.73 3.4-10.21 1.7-6.73 7.4 0.23 6.1-2.49-3.3-4.78-5.1 2.55-1.6 4.77-13.1 5.8-3.4 9.03-6.7-4.48-10.8-8.22-15.2 4.82 2.4 5.83-3 1.21-4.3 1.93-4.9-2.08-12.1 2.6-16.6-6.48-2.2-4.52-10.5-8.82-13.1-6.6-13.2-3.17-28.8-7.05-42.71z"/>
<path id="path230" fill="#413d38" d="m462.79 1018.2c5.31 9.5 5.69 21 6.27 31.7-1.72-9.7-3.83-21.3-6.27-31.7z"/>
<path id="path232" fill="#96593a" d="m626.13 1042c4.3 2.6 2.34 10.9 8.82 13.1-4.68 4.5-0.67 11.7-2.6 16.6 4.62 1.3 3.61 6.7-1.21 4.3 3.74 4.4 17.25 8.5 8.22 15.2-1.03-9.7-3.25 1.8-5.8 3.4 2.29 1.8 5.01 11.2 4.78 5.1-3.48-5.7 5-4 6.73-7.4 3.8 4.8-2.81 11.1 3.7 13.1 1.7 3.7-5.96 2.8-2.4 6.4 7.03-4 1.74 12.6 6.72 4.3-4.84 9.6 7.96 15.6 5.05 24.9-3.49 8.3 4.73 0 3.91 6.9 7.11-8.4 3.45 8-3.3 5.5 5.62 2.8 0.12 10.3 2.16 13.2 6.07-10 5.56 9.4 0.55 12.1 12.26 1-0.61 18.9 9.03 18.9 0.61 5.6-5.65 7.6-6.24 12 4.85 1.8-1.65 11.1 4.51 7.2 10.32-6.3-8.19 17.2 3.53 14.7 4.93 4.2-4.8 14.7 3.85 17.3 3.08 4.4-6.87 19.7 7.31 16.5-1.82 5.9-8.77 11.1-7.43 18.1 5.01-1.8 7.06 5.5 4.37 8.7 3.07 6.7 4.61 18.7-4.25 21.1 3.6 1.4 8.05 15.2 8.3 5.7 9.64 3.2-6.57 12-3.84 16.8 6.1-2.6-2.96 10.4 5.33 5.5 0.66-1.2 4.02-3.2 2.66-0.4-4.69 6.6 5.55 11.2 5.18 17.8-4.65 1.9-14.24 0.4-8.39 8.6 5.55-2.6 4.82 6-0.25 7.8 3.72 3.4-3.17 9.7 2.44 11-2.54-4.5 3.13-6.8 0.49-11.8 4.53 0.3 6.6 8.8 2.57 11.5-2.66 5.1 6.99-0.1 6.06 5.2-6.63-1.1-3.66 6.7-3.51 10.4 4.73 3.6-0.1-6.8 4.27-3.7 6 6.1-2.28 13 2.7 19.2 1.37 5.5 7.08 17.8 10.23 6.6 7.52-2.3 1 23-3.27 11.9-4.26 10.3 8.26 5.8 7.59 12.7-3 0.1-14.3 0.5-9.71 6.3 3.09 8.9-3.68 1.1-6.71 3.2-2.64 8 11.61 3 12.5 9.5-4 2.4-13.11-1.5-10.28 5.5 3.61 5.3-4.7 8.6 1.21 13 10.52-2.2-0.59 8.9 5.93 10.3 2.4-4.4 7.81-0.3 2 0.4 1.93 8.7 10.14-4.7 10.91 4.2-3.65 3.9-13.16 16.5-11.8 4.6-10.44 3.7-2.21 16.8-0.95 23.8-4.49 1-3-6.2-6.87-6.8-2.96 6.4 6.49 13.8 12.3 9.2-0.86 2.3-2.57 9.8-3.46 3.9-4.85-3.5-1.66 9.9 1.27 10.6 1.86-1.5 2.22-5.2 3.33-7.6-7.09-4.3 9.03-2.4 7.65 3.1 2.03 9.7-9.02 0.6-8.63 9.5 4.15-2.7 9.4 0.3 11.66-4.4 7.34 3.9-2.68 6.8 1.38 12.9-9.74-0.8-7.35 17.6-1.16 8.4 9.01 1.7-2.9 18.2 5.29 18.8 2.71-7.7 3.13-16.2 3.24-24.7 5.89-5.6 11.07-1.2 6.88 5.4-7.87-9.7-0.35 5.9-4.1 10.3 10.65 4.2 4.02-8.4 12.02-8.6 5.36-3.3 1.82 11.3 8.49 5.7 0.38 33.3 8.89 66.8 7.05 100.1-4.79 12.1 0.88 27.2-8.7 37-0.17 5.8 7.05-9.9 4.28 1.6-2.04 2.1-5.81 6.2-0.29 5.9 1.06-9.7 5.17 8.9-1.03 7.2 0.26 3.9 2.15 9.3-3.39 6.7 3.34 6.2 5.23 20.4-5.03 13.1-1.19 10.9-6.07 3.5-11.12-0.5-3.68 2.9-6.98-2.2-2.52-4.1 0.12-3.7-3.73-7.7-0.53-11.6-4.29 1.5-7.78 10.4-11.98 4.4-8.71-6 3.46-12.2 6.62-17.1 0.26-4.3 5.13-9.7 2.79-12.9-5.84 10.1-10.56-11.5-9.14-15.1-5.06 3.5-5.35-1.1-8.04-4.1-0.37 3.6 4.46 13.3-2.77 10.1 3.71-6.4-6.99-18.4 1.55-23.2-2.68 10.7 7.57-1.8 4.03-6-2.65-3.3-3.82-11.4 1.84-7.4-8.08-6-15.07-17.1-8.4-26.8-0.2-6-5.1-10.3-5.45-16.2-7.57 4.7-8.69-20.3-0.03-9.2-2.2-1.5 9.19-12.2 2.07-8.5-5.55 3.6 3.11-6.7-2.46-3.6-4.59-0.7-6.55 10.9-8.39 4 7.67-7.4 0.88-16.8 3.66-26.2-7.09-1.9 3.96-11.3 2.39-16.1-8.57-4.7-1.29-17.4-8.78-22.3-3.13 13.8-2.57-9.7-2.72-15.3 6.49 1.8-1.23-3.5 2.19-7.1-12.63 0.9-2.36-10.3-9.33-15.6-2.05-7.5 5.95-19.4-0.01-28.2 4.06-0.3 5.3-8.1 0.67-3.1-13.31 0.6 5.22-12.9-3-15-7.16 3.8-3.44-11.3 3-8.1-0.96-10.1-10.25-19.1-6.2-29-6.98 2.1-5.11-5.4 0.9-2.5 6.23-8.9-11.77-12.6-0.1-12.9-7.26-7.3 2.23-17.3-1.98-27.2 3.16-6.1 0.99-18.7-5.65-18.8 2.2-5.1 7.34-11.3 1.14-16.1-6.22-1.8-1.16-11.5-2.64-13.3-6.33 6.7-2.15-3.9-7.22-6-0.47-6.5 8.04 4.3 8.39-1.9-1.6-7.6-2.84-16.2-6.34-22.1 4.49-3.9 1.11-9.5-1.27-13.5 4.46-0.7-1.2-11.8 3.64-16.8-9.01-1.8 5.21-13.5-6.39-10.5 5.82-5.9-4.64-14.2 0.27-20.5 5.05-6.6-7.02-8.7-8.46-13 7.62-5.4 8.71-16.5 0.76-22.1 6.27 3.1 8.04-4.8 0.81-2.5 1.1-4.3-3.53-15.8-8.49-10.2-3.95 1.4 3.76-7-1.45-4.9-4.78-0.7-2.07-5.5 0.12-7.4-9.48-2-1.64-15.4-7.18-19.1-2.36-13.6-3.66-27.2-5.96-40.8-1.18-22.8-5-45.4-6.69-68.2z"/>
<path id="path234" fill="#d4b081" d="m491.37 1092.5c4.77-4.6 1.09 8.5 5.86 6.2 2.96 14.5 4.79 29.3 7.62 43.9-0.6 10.4 1.75 20.8 2.32 31.2 4.81 64.9 13.68 129 24.95 193 4.56 16.9 0.5 35 6.73 51.5 0.4 3.6 1.09 7.2 1.84 10.8 11.54 76.1 12.29 152.9 29.42 227.9 3.09 13.2 2.07 29.1 10.78 40.2 0.73 5 3.18 9.6 4.26 14.6 6.56 31.1 10.23 64.2 25.84 92.3-2.74 5.9-0.28 13.8 7.72 12 3.3 2.3 5.99 5.4 8.38 8.7-3.93-0.4-10.26 0.4-3.68 2.8 4.62 5.5 1.38 14.4 1.82 21.4-8.5-11.6-17.87-22.8-22.87-36.3-9.76 1.7-12.98 15.9-4.14 22.6-5.91 21.7 12.87 36.6 22.28 53.1-5.94 0.2-8.61-5.6-13.58-7.4-8.43-14.9-19.18-28.8-23.4-45.6-0.51-2.8-2.42-0.4-3.05 0.9-3.52-19-5.75-38.2-9.53-57.1 3.44 0.8 10.35 1.5 8.63-3.8-7.63-26.3-12.98-53-16.96-80-4.88 0.2-0.23 12.4-1.82 16.9-2.8-44.5-6.07-89.1-15.19-132.9-13.32-98.8-29.19-197.6-38.37-296.6-6.72-38.8-19.09-77.4-16.35-117.4 1.7-24.4-5.11-49.4 0.49-72.9z"/>
<path id="path236" fill="#d7ae7d" d="m561.16 1206.7c-3.88-36.5-9.09-72.8-14.4-108.8 5.72 7.3 7.56 15.3 4.32 24.5 3.13 2 9.03 4.8 13.21 2-4.44 8.2 2.41 16 2.17 24.5-6.27-0.8-2.89-10.8-9.67-13.3-2.97 12.9 7.03 19.2 8.74 30.8 2.28 0.8 3.56-4.4 2.91-6.7 5.87 1.8 5.35 9.5 4.21 13.8 6.12 5.7-7.01 3.2-6.46-1.6-5.14-2.9-4.22 9.3-3.4 10.6 3.66-4.4 5.48 5.9 6.64 0-2.04-8.5 7.91-2.1 6.76 3.4-0.93 9.4 9.85 19.9 2.96 27.9 7.74 2.2 2.95 12.2 4.13 16.3 7.9 2-5.5 7.2 0.74 9.6 7 13.8 8.45 31.6 13.1 46.4 0.86 5.8 1.98 11.7 1.6 17.6 7.41 70.4 26.47 141 26.79 212.7 7.9 23.6 2.21 50.6 12.63 72.6 8.47 42.2 14.7 84.7 30.17 125 2.49-0.3 1.66-3.2 1.95-5 1.06 8.6 3.62 16.8 5.64 25.2-0.27 4.5 5.58 11.6 1.08 15-3.03-1.1-8.27-5.6-10.16-1-25.02-41.8-35.91-91-45.28-138.8-12.39-44.3-13.57-90.5-23.62-135.2-3.82-25.2-13.11-50-12.36-75.8-4.5-45.9-14.36-91.2-15.6-137.2-3.51-18-3.35-37-8.8-54.5z"/>
<path id="path238" fill="#413d38" d="m475.03 1105.1c2.56 8.3 0.49 18.7 2.06 27.8-4.2-6.9-1.44-19.1-2.06-27.8z"/>
<path id="path240" fill="#d58f56" d="m619.82 1129.8c3.42 2 5.89 5.4 3.95 9.4 1.37 17.3 5.67 34.1 11.86 50.1 2.39 2.9 2.41 9.6 7.54 6.7 4.01 51.7 13.09 102.8 19.61 154.2 16.03 129.1 26.52 259.4 54.18 386.6-0.73 2.7 3.46 12.2-2.58 8.5-1.6-18.6-11.16-32.7-17.29-49.5-4.65-34.2-8.24-68.5-17.09-102-1.1-8.6-7.24-17.1-6-25.7 8.67-4.6 2.61-15.4 2.4-22.7 4.93-14.4-9.49-27.7-1.49-42.3-9.33-9 0.32-18.9-2.59-29.4-3.45-1.5-5.44-3.2-1.74-5.9-5.95-16.3 0.4-35.8-7.03-49.5-0.05-14.2-7.6-25.9-6.14-39.9 4.18-1.9 5.01-6.9-0.47-3.8 5.61-6.3-5.85-10.1-3.31-17.3-0.22-15.3-5.23-28.9-7.65-44.1 4.58-1.6 3.73 9.8 7.95 5.6 2.45-11.6-13.76-12-9.23-21.5-3.53-9.7-6.9-22.7-0.9-31.1-5.49-7.6-5.15-21 0.9-27.4-11.23 0.6 1.55-20.5-8.49-23.8 4.21-3 2.08-14.2-2.32-6.9-6.83-4.3-3.08-13.7-4.42-20.4-6.71-18.3-5.06-39-9.65-57.9z"/>
<path id="path242" fill="#c5733c" d="m504.85 1142.6c-0.66-3 1.87-8.6 3.06-3.5 9.25 10.8 9.86 31.8 13.22 47.7 2.23 0.8 3.41-1.6 4.47-3 9.27 75.8 18.49 152.1 29.15 227.5 6.65 67.3 23.2 133.1 29.01 200.5 3.34 51 18.17 100.3 23.09 151.4-8.07-16.7-15.23-34.3-21.7-51.4-1.08-5-3.53-9.6-4.26-14.6 1.2-8.3-4.69-16.2-1.41-24.1-7.99-22.4-4.44-46.7-11.95-68.8-5.5-32.6-6.25-67-15.37-100.4 2.47-22.9-6.7-44.9-9-67.7 0.65-3 1.45-6.4-2.47-7.1-0.75-3.6-1.44-7.2-1.84-10.8-3.45-60.9-13.22-122.2-22.64-181.9-1.87-20.9-3.96-42.2-9.04-62.6-0.57-10.4-2.92-20.8-2.32-31.2z"/>
<path id="path244" fill="#a2613d" d="m638.78 1151c5.54 3.7-2.3 17.1 7.18 19.1-2.19 1.9-4.9 6.7-0.12 7.4 5.21-2.1-2.5 6.3 1.45 4.9 4.96-5.6 9.59 5.9 8.49 10.2 7.23-2.3 5.46 5.6-0.81 2.5 7.95 5.6 6.86 16.7-0.76 22.1 1.44 4.3 13.51 6.4 8.46 13-4.91 6.3 5.55 14.6-0.27 20.5 11.6-3-2.62 8.7 6.39 10.5-4.84 5 0.82 16.1-3.64 16.8 2.38 4 5.76 9.6 1.27 13.5 3.5 5.9 4.74 14.5 6.34 22.1-0.35 6.2-8.86-4.6-8.39 1.9 5.07 2.1 0.89 12.7 7.22 6 1.48 1.8-3.58 11.5 2.64 13.3 6.2 4.8 1.06 11-1.14 16.1 6.64 0.1 8.81 12.7 5.65 18.8 4.21 9.9-5.28 19.9 1.98 27.2-11.67 0.3 6.33 4 0.1 12.9-6.01-2.9-7.88 4.6-0.9 2.5-4.05 9.9 5.24 18.9 6.2 29-6.44-3.2-10.16 11.9-3 8.1 8.22 2.1-10.31 15.6 3 15 4.63-5 3.39 2.8-0.67 3.1 5.96 8.8-2.04 20.7 0.01 28.2 6.97 5.3-3.3 16.5 9.33 15.6-3.42 3.6 4.3 8.9-2.19 7.1 0.15 5.6-0.41 29.1 2.72 15.3 7.49 4.9 0.21 17.6 8.78 22.3 1.57 4.8-9.48 14.2-2.39 16.1-2.78 9.4 4.01 18.8-3.66 26.2 1.84 6.9 3.8-4.7 8.39-4 5.57-3.1-3.09 7.2 2.46 3.6 7.12-3.7-4.27 7-2.07 8.5-8.66-11.1-7.54 13.9 0.03 9.2 0.35 5.9 5.25 10.2 5.45 16.2-6.67 9.7 0.32 20.8 8.4 26.8-5.66-4-4.49 4.1-1.84 7.4 3.54 4.2-6.71 16.7-4.03 6-8.54 4.8 2.16 16.8-1.55 23.2 7.23 3.2 2.4-6.5 2.77-10.1 2.69 3 2.98 7.6 8.04 4.1-1.42 3.6 3.3 25.2 9.14 15.1 2.34 3.2-2.53 8.6-2.79 12.9-3.16 4.9-15.33 11.1-6.62 17.1 4.2 6 7.69-2.9 11.98-4.4-3.2 3.9 0.65 7.9 0.53 11.6-4.46 1.9-1.16 7 2.52 4.1 5.05 4 9.93 11.4 11.12 0.5 10.26 7.3 8.37-6.9 5.03-13.1 5.54 2.6 3.65-2.8 3.39-6.7 6.2 1.7 2.09-16.9 1.03-7.2-5.52 0.3-1.75-3.8 0.29-5.9 2.77-11.5-4.45 4.2-4.28-1.6 9.58-9.8 3.91-24.9 8.7-37 5.06 19-5.27 36.8 0.78 55.3-6.13 8.3-4.5 18.5-8.28 27.6-9.06 5.7-6.05 18.8-16.71 22.6 3.3 10.7 16.56 6 23.82 11.1-0.41 0-1.23-0.1-1.65-0.2-15.28 1.6-26.65-9.8-41.15-11.1-6.95-4.5-16.05-6.9-20.76-14.1 7.22 3.6 13.92 8.7 21.6 11 5.84-12.3-0.16-27.6-4.83-40-27.66-127.2-38.15-257.5-54.18-386.6-6.52-51.4-15.6-102.5-19.61-154.2-2.09-15-3.38-30-4.39-45z"/>
<path id="path246" fill="#413d38" d="m477.31 1151.7c3.1 21.8 1.45 43.8 4.67 65.5-5.31-20.2-2.9-44-4.67-65.5z"/>
<path id="path248" fill="#cc8850" d="m507.17 1173.8c5.08 20.4 7.17 41.7 9.04 62.6 9.42 59.7 19.19 121 22.64 181.9-6.23-16.5-2.17-34.6-6.73-51.5-11.27-64-20.14-128.1-24.95-193z"/>
<path id="path250" fill="#d68f57" d="m561.16 1206.7c5.45 17.5 5.29 36.5 8.8 54.5 1.24 46 11.1 91.3 15.6 137.2-0.75 25.8 8.54 50.6 12.36 75.8-5.35-7-5.09-16.5-8.98-24.3-0.85-5.6 0-12.2-4.59-16.4-3.73-12-1.06-26.3-6.73-37.4 0.5-3.6 2.16-6.9 2.4-10.5-4.11 1.2-7.27-2.1-6.41-6.5 9.78 10.9 3.17-12.7 3.77-18-7.04-1.2 3.19-3.4 0.9-7.7-6.86-22.5-5.54-48.8-12.42-69.6 4.33-10-1.26-22.8-2.18-32.7 3.79-14.9-7.04-29.1-2.52-44.4z"/>
<path id="path252" fill="#d28345" d="m947.7 1242.4c2.89-10.6-0.98-26 8.47-33.6 1.83 28 13.58 55.2 9.99 83.9 5.91 8.5 2.54 20.6 5.08 30.5-0.12 1.2-0.19 2.4-0.21 3.6-1.94 17.4 1.29 34.8 0.25 52.2-1.55 13.5 1.62 26.7 1.74 40.2 1.02-5.7-6.53-6.2-5.63-11.4 0.62-4.8-2.58-16.1-4.18-4.6-4.34 2.6 1.42-9-4.42-3.4-7.93 2.8-3.04-5.5 1.77-6.4-0.34-7-7.72-14.1-14.8-12.6-5.4 4.6-4.21 11.9-5.04 18.2-3.24-5.8 0.68-12 1.26-18 2.78-46.1 4.67-92.8 5.72-138.6z"/>
<path id="path254" fill="#c56e38" d="m551.02 1303.8c10.7 17.6 15.9 38.8 16.95 60.5 2.07 22.5 14.22 43.7 12.7 66.2 2.33 6.6 6.46 12.5 8.27 19.4 3.89 7.8 3.63 17.3 8.98 24.3 10.05 44.7 11.23 90.9 23.62 135.2 9.37 47.8 20.26 97 45.28 138.8-1.25 6.2 0.4 12.2 1.19 18.3-5.66 8.6 4.13 17.6 4.61 25.7 0.66 5.7-8.11 19.4-9.34 5.4-10.71 0.6 1.94 15.7-4.12 15.6 2.2 6.5 9.31-1.8 12.98 2.6 5.52 2.1 2.59 9.9 6.81 12.6 3.95-1.8 7.52-1 4.38 3.6 4.98-1.1 8.26 2.6 12.67 5-1.16 6.2-9.33-2.2-8.94 4-0.23 6.2 8.31 1.1 8.02 8.4 10.75-0.8 19.77 4.1 23.98 13.4 8.62 0 17.49 11.2 24.96 4.3 1.69 2.6 8.83 3.9 5.52-0.6 5.54 1.8 9.84 6.3 16.14 6.7-4.57-6.1 4.43-8.3 9.06-9.1 0.76 5.4-5.33 4.5-7.77 7.2 4.77 3.3 12.71 3.2 15.24-2.1 4.13 1.5 8.68 6 12.99 1 1.11 5.2 2.84 2.3 5.61-0.2 3.05 6.1 10.8 0.2 16.15 1.9-23.28 6.9-45.37 2.9-69.49 0.8-20.84 0.4-37.45-17.5-57.53-20.5-7.42-6-15.78-13.6-25.61-13-7.41-7.7-21.53-11.8-21.28-24.6-7.2-8.2-14.18-17.5-22.25-24.4-7.91-52.7-14.31-105.5-25.59-157.6 0.57-26-5.1-51.9-7.68-78-17.27-82.7-23.59-167.4-36.51-250.8z"/>
<path id="path256" fill="#d9904b" d="m624.19 1343.1c11.28-3 7.2 12.7 12.24 18.5 10.53 12.4 1.98 30.5 9.72 44.4 8.67 43.7 8.09 88.6 19.87 131.8 2.63 8.6 2.95 17.8 5.76 26.3-8.7-0.7 0.72 16.1-6.06 9.4-2.3 0.5-4.81 7.4-1.95 8.3 10.39-7.1 3.7 10.9-2.33 11.4-2.83-3.4-8.19-4.1-11.57-5.7-5.28 27.1 11.1 53.7 11 80.6-29.47-105.5-41.58-215.7-36.68-325z"/>
<path id="path258" fill="#cfa270" d="m1051.1 1348.9c10.3 7.7-1.3 24.7 2.8 36.3-0.8 61.4-9.4 122.4-19.6 183.1 1.3-7.9-3.7-16.5 2.2-23.6-1.8-9.5 9.7-27.1-5.1-26.7-4.1 6-1 14-3.6 20.5-11.1 11.7-6.7 30.1-15.3 43.2-2.3 11.8-0.2 25.4-5.7 36.3 1-40.6 7.6-80.7 12.2-120.9 1.8-6.7 8.8-14.2 1.9-19.7 11.7-6.6 3.6-23.8 4.7-34.7 4-5.8 6.4-12.6 2.4-18.3 7.7 2.8 0.5-12.1 6.7-14 6.3 1.8 0.4-7.6 3.2-10.4 4.5-6.6-2-13.9 1.4-20.6 10.4-6.7 5.9-21.4 11.8-30.5z"/>
<path id="path260" fill="#cb8647" d="m540.69 1429.1c3.92 0.7 3.12 4.1 2.47 7.1 2.3 22.8 11.47 44.8 9 67.7 9.12 33.4 9.87 67.8 15.37 100.4 7.51 22.1 3.96 46.4 11.95 68.8-3.28 7.9 2.61 15.8 1.41 24.1-8.71-11.1-7.69-27-10.78-40.2-17.13-75-17.88-151.8-29.42-227.9z"/>
<path id="path262" fill="#413d38" d="m521.96 1494c3.2 8 2.39 17.3 3.04 25.9-2.41-7.1-1.76-17.5-3.04-25.9z"/>
<path id="path264" fill="#bf6c38" d="m761.36 1509c4.01-7.4 11.75-1.6 10.03 5.5 2.55 3.2 2.65-9.5 5.54-3.4 4.94 3.1 0.42 14.8 7.43 10.3-2.85 6.2-13.03 7.5-12.97 15.3 4.59 0.2 7.43-4.5 11.73-5.6-1.25 3.7-1.13 9.4-4.11 11.8-4.89-6.1-15.82 3.6-15.64 8.5 6.94 6.7 5.09-6.6 13.16-3.7-0.62 4.8-11.21 9.8-1.6 12-2.34-12.3 12.15 3.1 14.49 6-2.21 3.6-2.06 8.6 1.39 11.4-5.99 3.4 0.29 5.8 2.18 9-15.54-4.6-1.07-20.5-12.75-26-6.94 5.7-12.26 18.4-3.22 23.6-4.73 7.5-6.11-1-10.06-2.6-2.04 11.7 14.78 2.8 9.48 17.1 5.17 0.5 1.28-13.4 9.1-13 1.49 5 1.73 10.8-3.97 13.2 0.22 3.4 5.09 6.1 7.59 8.6 4.14-1.2 0.06-10.2 5.37-8.7 2.88 11.3-0.27-2.2 5.15 1.3 1.15 6.2-4.03 10.7-5.68 16.4-3.16-8.4-8.16-7.1-7.06 2.6 5.8-4 7 8.4 9.86 2.8-4.68-7.2 5.95-1.1 7.82 1 7.84-0.9 3.58-12 9.29-13.4-1.24 6.6-2.01 15.1-7.78 19.4 3.26 1.2 8.78 4.2 10.89-0.4 5.26 3.8-3.59 6-2.36 10-5.19 1.1-6.54 10.5-12.38 13.2 0.6-2.9 2.13-5.9 0.96-8.8-4.43-2.8-6.62 7.2-10.29 1.8 2.34-2 6.41-2.9 6.68-6.4-4.5-0.1-7.63 3.7-11.7 4.3-9.66 9.4 16.5 2.6 12.14 13.9 4.47-5 3.19 5.6 8.6 2.6 8.56-1.6-4.87 4.8-1.32 7.8 7.31-1.4 9.22 8.6 7.96 14-5.9 1.8-9.48 6.5-13.13 11.1-6.79 0.5-13.7 0.2-9.04 8.2 5.47-6.4 12.74-3.4 17.32 2.5-1.71-9 6.31-2.6 8.16 1.6-6.48 5.4 4.97 19.2-8.55 14.7-8.38 3.2-15.32 16.8-10.02 22.4 6.25-3.3-2.01-14.3 6.3-16.6 5.49-4.9 9.84-4.1 11.47 4.4 3.14-3.7 7.55 4.5 1.59 2.6-11.13 1.9 16.54 8.3 5.55 8.2-6.3 0.2 1.82 17.1 1.43 7-2.38-11.1 12.37 7 4.08 4-2.08 5.3-16.59 7.5-8.82 10.7 1.03 3-4.19-0.1-3.36 1.7 1.75 7.8 12.74-7.2 9.7 3.8-4.76 1.4 0.41 7.9-6.78 8.5 4.86-5.9-12.21-14-12.1-4.4 8.92 1 6.88 14 17.22 10 5.21 2.8 4.94-9.5 8.21-4.3-0.55 6.2 2.6-0.6 6.28 1.5-24.09 9.3-51.17 13-77.07 13.2-7.26-5.1-20.52-0.4-23.82-11.1 10.66-3.8 7.65-16.9 16.71-22.6 3.78-9.1 2.15-19.3 8.28-27.6-6.05-18.5 4.28-36.3-0.78-55.3 1.84-33.3-6.67-66.8-7.05-100.1-2.56-21.8-5.31-43.5-7.28-65.3 3.39-2.3 0.93 9.4 3.45 4.1 1.61-12.4 4.08 4.8 2.87 7.7 3.35 3.1 17.35-1.2 6.34-3.5-8.13-0.6 2.57-5.7-1.11-8.5z"/>
<path id="path266" fill="#d7b07f" d="m1031.4 1518c14.8-0.4 3.3 17.2 5.1 26.7-5.9 7.1-0.9 15.7-2.2 23.6-5 51.1-12.8 101.8-17 153-0.3 49.6-5.7 100.7-13.5 148.7 0.1 2.5-0.4 5.1-1.6 7.4-10.53-11.2-13.51 6.8-18.3 13.5-5.27 4.7-9.92 10.4-15.96 14-3.74-5.5 3.82-10 2.22-15.2 2.85-18.4 11.79-40.5-1.81-57.7 0.07-29.7 9.25-60.3 21.75-86.1 2.6 0.5 4.47-1.6 6.2-3.2 4.7-41.5 7.2-83.1 10.5-124.7 5.5-10.9 3.4-24.5 5.7-36.3 8.6-13.1 4.2-31.5 15.3-43.2 2.6-6.5-0.5-14.5 3.6-20.5z"/>
<path id="path268" fill="#474442" d="m1039.1 1619.6c1.7-21.4 4.6-43.5 7.9-64.4-1.1 21.1-4.6 45.7-7.9 64.4z"/>
<path id="path270" fill="#d98542" d="m665.72 1573.5c6.78 6.7-2.64-10.1 6.06-9.4 0.68 1.4 1.43 2.7 2.22 4-1.24 8.6 4.9 17.1 6 25.7-1.87 3.6-8.25 10.4-1.47 12.3 0.55 24.7-1.4 47.2 4.37 70.6-3.81-1.9-6.26-6.9-3.77 0.7 7.38 0.2 6.16 13.2-0.04 15.2 2.33 6.7 2.9 13.4 0.19 20.3 5.94 4.1 2.1 8.5 2.94 11.9-8.27-8.8-5.63 3.8-6.32 9.4-2.02-8.4-4.58-16.6-5.64-25.2-4.06-13.4-7.07-27.1-9.39-40.9 0.1-26.9-16.28-53.5-11-80.6 3.38 1.6 8.74 2.3 11.57 5.7 6.03-0.5 12.72-18.5 2.33-11.4-2.86-0.9-0.35-7.8 1.95-8.3z"/>
<path id="path272" fill="#ca793d" d="m678.53 1606.1c-6.78-1.9-0.4-8.7 1.47-12.3 8.85 33.5 12.44 67.8 17.09 102 6.13 16.8 15.69 30.9 17.29 49.5 6.04 3.7 1.85-5.8 2.58-8.5 4.67 12.4 10.67 27.7 4.83 40-7.68-2.3-14.38-7.4-21.6-11-8.44-4.6-16.43-9.6-23.21-16.6 4.5-3.4-1.35-10.5-1.08-15 0.69-5.6-1.95-18.2 6.32-9.4-0.84-3.4 3-7.8-2.94-11.9 2.71-6.9 2.14-13.6-0.19-20.3 6.2-2 7.42-15 0.04-15.2-2.49-7.6-0.04-2.6 3.77-0.7-5.77-23.4-3.82-45.9-4.37-70.6z"/>
<path id="path274" fill="#ddcbb8" d="m560.79 1712.3c1.59-4.5-3.06-16.7 1.82-16.9 3.98 27 9.33 53.7 16.96 80 1.72 5.3-5.19 4.6-8.63 3.8-3.27-22.3-8.2-44.4-10.15-66.9z"/>
<path id="path276" fill="#a75f38" d="m946.25 1712.3c2.5-6.3 13.85-7.5 14.46 1.2 4.87 8-6.17 21.7 5.14 26.6-1.4 3.1-5.55 4.3-6.44 7.7-0.27 14.4-10.35 25.8-12.73 39.7-8.19 7.1-12.9 17.1-20.42 24.8 3.96-15.3 20.48-25 20.59-41.3 0.2-3.5 5.87-3.9 5.01-7.7-13.53 0.3 11.03-6.3-1.64-8.7 8.53 0.8-5.48-8.4 3.46-8 0.17-4.6-7.37-5.6-6.31-10.1 5.87 1.8 6.12-5.4 0.28-2-1.93-5.2 8.5-1.2 3.98-5.3-9.98-2-0.35-11.3 2.33-16.2-14.22 4.6-24.18 13.7-32.17 19.4-14.87 6.5-27.94 16.9-42.54 23.8 20.37-17.2 44.47-29.6 67-43.9z"/>
<path id="path278" fill="#474442" d="m1029 1743c1.4-11.2-3.1-25 2-34.9-1.9 11.5 1.4 24.4-2 34.9z"/>
<path id="path280" fill="#cf8951" d="m585.15 1711.8c6.47 17.1 13.63 34.7 21.7 51.4 1.5 13.6 3.6 27.2 4.14 40.9-15.61-28.1-19.28-61.2-25.84-92.3z"/>
<path id="path282" fill="#93583b" d="m921.79 1732.4c7.99-5.7 17.95-14.8 32.17-19.4-2.68 4.9-12.31 14.2-2.33 16.2 4.52 4.1-5.91 0.1-3.98 5.3 5.84-3.4 5.59 3.8-0.28 2-1.06 4.5 6.48 5.5 6.31 10.1-8.94-0.4 5.07 8.8-3.46 8 12.67 2.4-11.89 9 1.64 8.7 0.86 3.8-4.81 4.2-5.01 7.7-0.11 16.3-16.63 26-20.59 41.3-7.52 10-17.07 19.5-27.93 26.1-2.97 11.3-17.85 9.7-25.27 16.7-6.12 2.1-12.67 2.6-18.75 4.9-3.93-1.2-7.29 2.4-11.26 2.1 6.19-6.4 17.78-6.9 26.81-7.7 0.37-3.3-2.69-9.8 2.01-10.4-1.27 3-0.76 8.9 3.46 6.2 0.95-10.4 4.84-2.2 11.46-3.4 0.88-3.5-3.72-2.2-4.62-4.7 5.96 0.6 15.18 1.8 12.91-7.1-5.43-3.4 6.13-12.2-1.49-10.2-3.88-8.2 8.06-13.8 3.38-20.1 6.75-4.8-3.4-7.9 0.7-13.8-8.1 4-0.64 19.7-10.22 20.7 3.46-7.8 4.24-19.9-6.13-23.7 1.49-2.4 3.67-4.3 4.65-6.9-7 5.3-12.34-0.8-19.15-0.3-2.04 7.7-12.03 2.5-13.98 10.1-1.1-6.1-6.65-5.3-5.4 0.9-7.58 8.2-6.24-9.1-10.15-6.6 6.68 10.1-9.79 18.9-16.58 10.6-4.3 0.7-8.96 0.1-13.44 0-0.53-7.4 7.85-0.6 7.54-8.4-7.8 2.2-15.6 3.6-20.03 7.9-2.7-4-8.93-4.2-9.01 1.6-0.64 6.6-6.92-0.1-5.51-3.9-5.69-3.6-13.09 4.2-18.16-1.9 0.42 0.1 1.24 0.2 1.65 0.2 25.9-0.2 52.98-3.9 77.07-13.2 15.65-1.5 25.13-15.3 38.43-21.8 14.6-6.9 27.67-17.3 42.54-23.8z"/>
<path id="path284" fill="#d8894f" d="m982.18 1741.5c1.82 0 2.41 4.5 5.62 3.8 0.58 0.1 1.73 0.5 2.3 0.6-12.5 25.8-21.68 56.4-21.75 86.1 13.6 17.2 4.66 39.3 1.81 57.7-3.41 8.8-11.83 13.2-17.37 20.3-16.97 9.1-35.15 13.4-53.63 18.1 5.87-2.9 10.86-6.5 17.05-6.9 0.46-4.9 5.16-6.9 2.27-0.8 3.28 1.5 18.36-3.8 8.47-8.8 10.66-2.6 17.14-11.6 17.62-23.5-6.54-1.2-5.44 11.2-13.09 8.4-7.83-2.9 1.18 12-4.11 11 3.01-5.8-12.34-14.1-0.81-13.8-2.61-2.4 0.73-7.3 2.74-6.9 1.89 6.5 6.19-1.5 6.41-4.8-7.15 2-16.97 6.8-18.83-4.2-0.75 7.7-11.4 3.7-13.93 9.8 0.39-6.3-4.92-3.7-8.87-2.6 10.79-8.1 21.61-16.3 32.22-24.7 4.19-2.1 4.88-7.5-0.52-8.4 2.54-2.4 10.81-8.2 8.76-0.9 11.06-0.6 9.16-19.2 20.19-19.9-2.63-10 5.78-17.5 5.74-27.5 7.65-20.5 12.59-42.5 21.71-62.1z"/>
<path id="path286" fill="#7f4c37" d="m666.82 1748.2c1.89-4.6 7.13-0.1 10.16 1 6.78 7 14.77 12 23.21 16.6 4.71 7.2 13.81 9.6 20.76 14.1 14.5 1.3 25.87 12.7 41.15 11.1 5.07 6.1 12.47-1.7 18.16 1.9-1.41 3.8 4.87 10.5 5.51 3.9 0.08-5.8 6.31-5.6 9.01-1.6 4.43-4.3 12.23-5.7 20.03-7.9 0.31 7.8-8.07 1-7.54 8.4 4.48 0.1 9.14 0.7 13.44 0 6.79 8.3 23.26-0.5 16.58-10.6 3.91-2.5 2.57 14.8 10.15 6.6-1.25-6.2 4.3-7 5.4-0.9 1.95-7.6 11.94-2.4 13.98-10.1 6.81-0.5 12.15 5.6 19.15 0.3-0.98 2.6-3.16 4.5-4.65 6.9 10.37 3.8 9.59 15.9 6.13 23.7 9.58-1 2.12-16.7 10.22-20.7-4.1 5.9 6.05 9-0.7 13.8 4.68 6.3-7.26 11.9-3.38 20.1 7.62-2-3.94 6.8 1.49 10.2 2.27 8.9-6.95 7.7-12.91 7.1 0.9 2.5 5.5 1.2 4.62 4.7-6.62 1.2-10.51-7-11.46 3.4-4.22 2.7-4.73-3.2-3.46-6.2-4.7 0.6-1.64 7.1-2.01 10.4-9.03 0.8-20.62 1.3-26.81 7.7-20.54 2.6-43.93 10.3-63.22 1.1-42.23-5.5-76.44-36-100.12-67-4.43-9.7-12.86-18.3-11.7-29.7-0.79-6.1-2.44-12.1-1.19-18.3z"/>
<path id="path288" fill="#474442" d="m1029 1748.8c0.5 7.2-0.1 20-1.9 25.6-0.9-8.6 0.4-17.2 1.9-25.6z"/>
<path id="path290" fill="#b86735" d="m672.62 1792.2c-0.48-8.1-10.27-17.1-4.61-25.7-1.16 11.4 7.27 20 11.7 29.7 23.68 31 57.89 61.5 100.12 67 19.29 9.2 42.68 1.5 63.22-1.1 3.97 0.3 7.33-3.3 11.26-2.1-11.89 4.8-24.26 12.8-37.35 11.9-5.35-1.7-13.1 4.2-16.15-1.9-2.77 2.5-4.5 5.4-5.61 0.2-4.31 5-8.86 0.5-12.99-1-2.53 5.3-10.47 5.4-15.24 2.1 2.44-2.7 8.53-1.8 7.77-7.2-4.63 0.8-13.63 3-9.06 9.1-6.3-0.4-10.6-4.9-16.14-6.7 3.31 4.5-3.83 3.2-5.52 0.6-7.47 6.9-16.34-4.3-24.96-4.3-4.21-9.3-13.23-14.2-23.98-13.4 0.29-7.3-8.25-2.2-8.02-8.4-0.39-6.2 7.78 2.2 8.94-4-4.41-2.4-7.69-6.1-12.67-5 3.14-4.6-0.43-5.4-4.38-3.6-4.22-2.7-1.29-10.5-6.81-12.6-3.67-4.4-10.78 3.9-12.98-2.6 6.06 0.1-6.59-15 4.12-15.6 1.23 14 10 0.3 9.34-5.4z"/>
<path id="path292" fill="#e59256" d="m620.8 1790.2c8.07 6.9 15.05 16.2 22.25 24.4-0.25 12.8 13.87 16.9 21.28 24.6 9.83-0.6 18.19 7 25.61 13-10.58-4.3-23.74-15.9-34.09-4.2-4.46-6.8-18.97-15.1-18.33-0.1-2.56-4.5 1.22-7.2 2.46-10.8-3.73-4.5-8.6-8.2-12.89-12.3-2.39-3.3-5.08-6.4-8.38-8.7 7.17-6.9-0.26-17.4 2.09-25.9z"/>
<path id="path294" fill="#cb9f6c" d="m598.22 1835.3c-8.84-6.7-5.62-20.9 4.14-22.6 5 13.5 14.37 24.7 22.87 36.3 9.94 4.9 16.42 15.5 27.75 18 1.28-0.9 1.52-2.6 2.18-3.9 47.11 34.5 108.54 40.1 164.95 33.1 36.18-8.8 74.11-17.6 102.81-43.3 0.94-0.3 1.9-0.7 2.86-1 5.4 0.9 4.71 6.3 0.52 8.4-10.61 8.4-21.43 16.6-32.22 24.7-19.94 10.8-43.23 12.1-64.63 18.5-43.1 9-88.42 15-130.7-1.4-20.93-4.9-35.46-24.6-57.45-26.4-6.17-1.3-16.18-7.6-19.68 0.8-0.25 6.9 4.98 13 11.36 15.5 54.66 52 135.76 60.6 207.97 50.9-7 10.1-20.2-1.4-28.96 5.7-6.65-3.7-11.64 1.5-16.87 5-3.5-9.8-16.95 8.1-19.38-2.4-1.68-4.8-6.33-0.8-6.87 2.5-4.93-2.9-9.25 0.1-13.83 1.8-9.57-5.7-20.87-4.1-32.37-7.9-15.19-9.3-33.3-11.8-47.65-21.3-6.47 6.3-10.98-2.4-16.99-4.3-13.94-9.5-25.51-22.1-37.53-33.6-9.41-16.5-28.19-31.4-22.28-53.1z"/>
<path id="path296" fill="#443c36" d="m939.57 1813.3c3.88-1.4 5.49 2.2 3.77 5.9-4.09 12.6-12 23.8-20.42 33.7-28.7 25.7-66.63 34.5-102.81 43.3-56.41 7-117.84 1.4-164.95-33.1-4.95-6.1-11.12-10.9-17.64-15.2-0.64-15 13.87-6.7 18.33 0.1 2.27 1.4 4.56 2.8 6.78 4.3 8.01 5.5 15.96 11 24.25 16 20.07 9.5 41.45 16.5 63.9 16.1 51.75 4.4 108.14-2.3 151.32-32.6 17.9-6.5 26.56-24.4 37.47-38.5z"/>
<path id="path298" fill="#474442" d="m1020.9 1838.9c1.7-7.7-2.1-17 2-23.9-1.7 7.2 1.9 18.2-2 23.9z"/>
<path id="path300" fill="#e7c9ab" d="m623.41 1827.6c-6.58-2.4-0.25-3.2 3.68-2.8 4.29 4.1 9.16 7.8 12.89 12.3-1.24 3.6-5.02 6.3-2.46 10.8 6.52 4.3 12.69 9.1 17.64 15.2-0.66 1.3-0.9 3-2.18 3.9-11.33-2.5-17.81-13.1-27.75-18-0.44-7 2.8-15.9-1.82-21.4z"/>
<path id="path302" fill="#e8d6c5" d="m580.47 1836.3c0.63-1.3 2.54-3.7 3.05-0.9 4.22 16.8 14.97 30.7 23.4 45.6 2.56 8.5 13.71 6.4 17.57 13.6 10.06 14.6 27.23 23.4 36.21 38.6-3.74 1.8-8.6-6.1-13.87-6-18.94-11.4-38.64-23.6-50.38-43-3.68-2.2-10.82-2.3-12.55 2.7-0.24-1.3-0.45-2.5-0.53-3.7 10.27-14-2.3-31.6-2.9-46.9z"/>
<path id="path304" fill="#dbb991" d="m655.85 1848c10.35-11.7 23.51-0.1 34.09 4.2 21.66 8.8 41.36 23.5 64.11 31.1-1.06 0.4-2.15 0.8-3.27 1.1-22.45 0.4-43.83-6.6-63.9-16.1 14.12-12.6-25.26-35-24.25-16-2.22-1.5-4.51-2.9-6.78-4.3z"/>
<path id="path306" fill="#e0dae0" d="m662.63 1852.3c-1.01-19 38.37 3.4 24.25 16-8.29-5-16.24-10.5-24.25-16z"/>
<path id="path308" fill="#d88850" d="m890.54 1853c3.51-3.9 15.45-12 11.56-1.2-43.18 30.3-99.57 37-151.32 32.6 1.12-0.3 2.21-0.7 3.27-1.1-22.75-7.6-42.45-22.3-64.11-31.1 20.08 3 36.69 20.9 57.53 20.5 24.12 2.1 46.21 6.1 69.49-0.8 13.09 0.9 25.46-7.1 37.35-11.9 6.08-2.3 12.63-2.8 18.75-4.9 5.7-1.6 12.01-0.4 17.48-2.1z"/>
<path id="path310" fill="#c97742" d="m621.62 1876.5c3.5-8.4 13.51-2.1 19.68-0.8 21.99 1.8 36.52 21.5 57.45 26.4 42.28 16.4 87.6 10.4 130.7 1.4 21.4-6.4 44.69-7.7 64.63-18.5 3.95-1.1 9.26-3.7 8.87 2.6 2.53-6.1 13.18-2.1 13.93-9.8 1.86 11 11.68 6.2 18.83 4.2-0.22 3.3-4.52 11.3-6.41 4.8-2.01-0.4-5.35 4.5-2.74 6.9-11.53-0.3 3.82 8 0.81 13.8 5.29 1-3.72-13.9 4.11-11 7.65 2.8 6.55-9.6 13.09-8.4-0.48 11.9-6.96 20.9-17.62 23.5 9.89 5-5.19 10.3-8.47 8.8 2.89-6.1-1.81-4.1-2.27 0.8-6.19 0.4-11.18 4-17.05 6.9-18.08 10.4-39.92 5.4-58.21 14.8-72.21 9.7-153.31 1.1-207.97-50.9-6.38-2.5-11.61-8.6-11.36-15.5z"/>
<path id="path312" fill="#474442" d="m983.9 1890.9c4.79-6.7 7.77-24.7 18.3-13.5-2 17.9-14.37 36-31.03 43.7-13.89 14.8-33.18 24.8-52.65 29.1-7.6 2.1-16.69 1.5-23.41 5.8-0.29 0.3-0.86 0.8-1.15 1.1-6.29 2.3-13.66 1.7-19.23 5.8l-0.83 0.1c-38.92 9.8-79.05 8-118.71 7-35.21-2.6-72.31-4.1-103.54-22.7-22.86-14.9-47.91-28-63.41-51.5-1.69-2.8-6.98-5.1-4.34-8.9 1.73-5 8.87-4.9 12.55-2.7 11.74 19.4 31.44 31.6 50.38 43 24.36 20.6 55.69 28.3 87.04 29 16.34 2.1 33.14 3.4 49.41 4 49.35 4.2 97.66-8 143.77-24.1 21.24-11.9 44.1-23.3 56.85-45.2z"/>
<path id="path314" fill="#e4c5a5" d="m606.92 1881c4.97 1.8 7.64 7.6 13.58 7.4 12.02 11.5 23.59 24.1 37.53 33.6 7.3 8.4 15.72 16.2 25.89 21 3.37-1.8 5.02-6.3 9.03-7 15.38 8.2 31.51 13 48.04 18 5.85 2.5-4.46 2-7.12 2.2-31.35-0.7-62.68-8.4-87.04-29 5.27-0.1 10.13 7.8 13.87 6-8.98-15.2-26.15-24-36.21-38.6-3.86-7.2-15.01-5.1-17.57-13.6z"/>
<path id="path316" fill="#e3c6a9" d="m970.16 1889.7c1.6 5.2-5.96 9.7-2.22 15.2 6.04-3.6 10.69-9.3 15.96-14-12.75 21.9-35.61 33.3-56.85 45.2-46.11 16.1-94.42 28.3-143.77 24.1-3.1-1-8.51 0.8-9.58-3 20.14-5.2 41.25 3.5 60.65-5.8 41.33-6.4 85.9-13.2 118.44-41.4 5.54-7.1 13.96-11.5 17.37-20.3z"/>
<path id="path318" fill="#d5aa7b" d="m899.16 1928.1c18.48-4.7 36.66-9 53.63-18.1-32.54 28.2-77.11 35-118.44 41.4-19.4 9.3-40.51 0.6-60.65 5.8 1.07 3.8 6.48 2 9.58 3-16.27-0.6-33.07-1.9-49.41-4 2.66-0.2 12.97 0.3 7.12-2.2-16.53-5-32.66-9.8-48.04-18-4.01 0.7-5.66 5.2-9.03 7-10.17-4.8-18.59-12.6-25.89-21 6.01 1.9 10.52 10.6 16.99 4.3 14.35 9.5 32.46 12 47.65 21.3 11.5 3.8 22.8 2.2 32.37 7.9 4.58-1.7 8.9-4.7 13.83-1.8 0.54-3.3 5.19-7.3 6.87-2.5 2.43 10.5 15.88-7.4 19.38 2.4 5.23-3.5 10.22-8.7 16.87-5 8.76-7.1 21.96 4.4 28.96-5.7 18.29-9.4 40.13-4.4 58.21-14.8z"/>
<g fill="#413d38">
<path id="path320" d="m895.11 1956c6.72-4.3 15.81-3.7 23.41-5.8-4.93 2.9-15.71 4.6-23.41 5.8z"/>
<path id="path322" d="m874.73 1962.9c5.57-4.1 12.94-3.5 19.23-5.8-4.38 5-13.05 4-19.23 5.8z"/>
<path id="path324" d="m755.19 1970c39.66 1 79.79 2.8 118.71-7-37.42 10.5-80.79 11-118.71 7z"/>
</g>
</g>
</svg>
